<?xml version="1.0" encoding="utf-8"?>
<!-- Generator: Adobe Illustrator 22.0.0, SVG Export Plug-In . SVG Version: 6.00 Build 0)  -->
<svg version="1.1" id="Layer_1" xmlns="http://www.w3.org/2000/svg" xmlns:xlink="http://www.w3.org/1999/xlink" x="0px" y="0px"
	 viewBox="0 0 504.3 504.3" style="enable-background:new 0 0 504.3 504.3;" xml:space="preserve">
<style type="text/css">
	.st0{fill:#83C38E;}
	.st1{fill:#F4F3ED;}
	.st2{fill:#74BE86;}
	.st3{fill:#56B46F;}
</style>
<path class="st0" d="M129.5,147.5l148.2-29.3c4.4-0.9,8.5,2,9.4,6.1l58,276.4c0.9,4.4-2,8.5-6.1,9.4l-148.5,29.3
	c-4.4,0.9-8.5-2-9.4-6.1l-57.7-276.4C122.5,152.5,125.2,148.4,129.5,147.5z"/>
<path class="st1" d="M285.6,202.9L272.2,137c-0.3-2-2.6-3.5-4.7-3.2l-125.3,24.9c-2,0.3-3.5,2.6-3.2,4.7l13.5,65.9
	c0.3,2,2.6,3.5,4.7,3.2s3.5-2.6,3.2-4.7l-12.6-62.1l117.4-23.4l12.6,62.1c0.3,2,2.6,3.5,4.7,3.2C284.5,207,285.9,204.9,285.6,202.9z
	"/>
<path class="st2" d="M167.3,101.6l150.5-14.6c4.4-0.3,8.2,2.6,8.8,7l36,295.2c0.3,4.4-2.6,8.2-7,8.5l-150.5,14.6
	c-4.4,0.3-8.2-2.6-8.8-7l-36-295.2C160,106,163.2,101.9,167.3,101.6z"/>
<path class="st1" d="M310.5,105.1c-0.3-2-2-3.8-4.4-3.5L179,113.9c-2,0.3-3.8,2-3.5,4.4l6.7,67.1c0.3,2,2,3.8,4.4,3.5
	c2-0.3,3.8-2,3.5-4.4l-6.1-63l119.2-11.4l6.1,63c0.3,2,2,3.8,4.4,3.5c2-0.3,3.8-2,3.5-4.4C317.3,172.1,310.5,105.1,310.5,105.1z"/>
<path class="st3" d="M219.2,64.7h153.7c4.4,0,8.2,3.5,8.2,8.2v306c0,4.4-3.5,8.2-8.2,8.2H219.2c-4.4,0-8.2-3.5-8.2-8.2v-306
	C211,68.2,214.5,64.7,219.2,64.7z"/>
<path class="st1" d="M237.3,225.7c0,32.5,26.4,58.6,58.6,58.6s58.6-26.4,58.6-58.6s-26.4-58.6-58.6-58.6S237.3,193.5,237.3,225.7z
	 M264.6,224.3h4.4c0.9-7.3,5-12.9,9.4-15.2c0.6-0.3,1.5-0.6,2-0.6c2.3,0,4.1,1.8,4.1,3.8c0,1.8-0.9,2.6-1.8,3.2
	c-3.2,3.2-5.9,7-5.9,12.3c0,6.7,2.3,10,7,10c11.4,0,6.1-27.2,24.9-27.2c7,0,12.9,4.1,14.1,13.8h4.4c2,0,3.8,1.5,3.8,3.5
	c0,2-1.8,3.5-3.8,3.5h-4.4c-0.9,5.9-3.2,10.8-7,13.5c-0.6,0.6-1.5,0.9-2.6,0.9c-2.3,0-4.1-1.8-4.1-4.1c0-1.2,0.6-2,1.8-3.2
	c2.3-2.3,4.1-6.1,4.1-10.5c0-6.1-2.9-8.5-6.1-8.5c-10.2,0-5.6,27.2-24.9,27.2c-8.5,0-14.1-5.3-15.2-15.2h-4.4c-2,0-3.8-1.5-3.8-3.5
	C260.7,225.7,262.5,224.3,264.6,224.3z M361.8,313.6c-2.3,0-4.4,2-4.4,4.4v45.4h-123V318c0-2.3-2-4.4-4.4-4.4c-2.3,0-4.4,2-4.4,4.4
	v49.8c0,2.3,2,4.4,4.4,4.4h131.8c2.3,0,4.4-2,4.4-4.4V318C366.2,315.6,364.1,313.6,361.8,313.6z M361.8,79.3H230
	c-2.3,0-4.4,2-4.4,4.4v49.8c0,2.3,2,4.4,4.4,4.4c2.3,0,4.4-2,4.4-4.4V88.1h123v45.4c0,2.3,2,4.4,4.4,4.4c2.3,0,4.4-2,4.4-4.4V83.7
	C366.2,81.4,364.1,79.3,361.8,79.3z M287.1,325.3c0,5,3.8,8.8,8.8,8.8c5,0,8.8-3.8,8.8-8.8c0-5-3.8-8.8-8.8-8.8
	C290.9,316.5,287.1,320.6,287.1,325.3z M304.7,126.2c0-5-3.8-8.8-8.8-8.8c-5,0-8.8,3.8-8.8,8.8c0,5,3.8,8.8,8.8,8.8
	C300.9,134.9,304.7,131.1,304.7,126.2z"/>
</svg>
