<?xml version="1.0" encoding="utf-8"?>
<!-- Generator: Adobe Illustrator 22.0.0, SVG Export Plug-In . SVG Version: 6.00 Build 0)  -->
<svg version="1.1" id="Layer_1" xmlns="http://www.w3.org/2000/svg" xmlns:xlink="http://www.w3.org/1999/xlink" x="0px" y="0px"
	 viewBox="0 0 55 55" style="enable-background:new 0 0 55 55;" xml:space="preserve">
<path d="M30.7,16.9V4.3c0-1-0.8-1.8-1.8-1.8c-1,0-1.8,0.8-1.8,1.8v12.7C28.3,16.7,29.5,16.7,30.7,16.9z"/>
<path d="M23.1,18.3C23.1,18.3,23.1,18.3,23.1,18.3c0.8-0.4,1.5-0.7,2.2-1V7.9c0-1-0.8-1.8-1.8-1.8c-1,0-1.8,0.8-1.8,1.8v11.4
	C22.2,18.9,22.6,18.7,23.1,18.3C23,18.4,23.1,18.3,23.1,18.3z"/>
<path d="M34.7,18.3C34.7,18.3,34.7,18.4,34.7,18.3c0.5,0.3,0.9,0.6,1.3,0.9V7.9c0-1-0.8-1.8-1.8-1.8c-1,0-1.8,0.8-1.8,1.8v9.5
	C33.2,17.6,33.9,17.9,34.7,18.3C34.6,18.3,34.7,18.3,34.7,18.3z"/>
<path d="M39.7,13.1c-0.3,0-0.6,0-0.8,0.1l0,0c-0.2,0.1-0.4,0.2-0.5,0.4c-0.3,0.3-0.5,0.8-0.5,1.3V21c0.4,0.5,0.8,1,1.1,1.5
	c0,0,0,0,0,0.1c0,0,0,0,0,0.1c2,3.6,2,7.9,0,11.5c0,0,0,0,0,0.1c0,0,0,0.1-0.1,0.1c-1,1.7-2.4,3.1-4.1,4.1c0,0,0,0-0.1,0
	c0,0,0,0-0.1,0c-2.6,1.5-5.8,1.9-8.7,1.1c-0.5-0.1-1.6-0.5-1.6-0.6c-0.4-0.2-0.7-0.4-1.1-0.6c0,0,0,0-0.1,0c0,0,0,0-0.1,0
	c-1.4-0.8-2.6-2-3.6-3.3c-0.2-0.1-0.5-0.2-0.7-0.4c-1.2-0.7-2.2-1.6-3-2.8c0,0,0,0,0,0c0,0,0,0,0,0c-0.3-0.4-0.6-0.8-0.9-1.2
	c-1.8-2.7-5.3-5.9-6.6-5.9c-0.6,0-1.2,0.3-1.6,0.9c-0.1,0.4,0,0.7,0.4,1.2c2,2,5.7,8.4,7.5,12.8c1.1,2.8,3.8,5.7,5.3,7.2
	c1.2,1.2,1.9,2.8,1.9,4.4v0.3c0,0.5,0.4,0.9,0.9,0.9h14.3c0.5,0,0.9-0.4,0.9-0.9v-2.7c0-0.7,0.3-1.4,0.8-1.9
	c2.7-2.5,2.8-6.9,2.8-6.9V15C41.4,14,40.7,13.2,39.7,13.1z"/>
<path d="M19.2,29.3h-0.1c0.1,1.1,0.4,2.2,0.9,3.2l0.1-0.1c0.3-0.2,0.6-0.2,0.9,0c0.3,0.2,0.4,0.5,0.4,0.8c0,0.3-0.2,0.6-0.4,0.8
	L20.9,34c0.6,0.9,1.4,1.7,2.4,2.4l0.1-0.1c0.2-0.4,0.8-0.6,1.2-0.3c0.4,0.2,0.6,0.8,0.3,1.2l-0.1,0.1c1,0.5,2.1,0.8,3.2,0.9V38
	c0-0.5,0.4-0.9,0.9-0.9c0.5,0,0.9,0.4,0.9,0.9v0.1c1.1-0.1,2.2-0.4,3.2-0.9l-0.1-0.1c-0.2-0.4-0.1-1,0.3-1.2c0.4-0.2,1-0.1,1.2,0.3
	l0.1,0.1c0.9-0.6,1.7-1.4,2.4-2.4L36.8,34c-0.3-0.2-0.4-0.4-0.4-0.8c0-0.3,0.2-0.6,0.4-0.8c0.3-0.2,0.6-0.2,0.9,0l0.1,0.1
	c0.5-1,0.8-2.1,0.9-3.2h-0.1c-0.5,0-0.9-0.4-0.9-0.9c0-0.5,0.4-0.9,0.9-0.9h0.1c-0.1-1.1-0.4-2.2-0.9-3.2l-0.1,0.1
	c-0.3,0.2-0.6,0.2-0.9,0c-0.3-0.2-0.4-0.5-0.4-0.8c0-0.3,0.2-0.6,0.4-0.8l0.1-0.1c-0.6-0.9-1.4-1.7-2.4-2.4l-0.1,0.1
	c-0.2,0.3-0.5,0.4-0.8,0.4c-0.3,0-0.6-0.2-0.8-0.4c-0.2-0.3-0.2-0.6,0-0.9l0.1-0.1c-1-0.5-2.1-0.8-3.2-0.9v0.1
	c0,0.5-0.4,0.9-0.9,0.9c-0.5,0-0.9-0.4-0.9-0.9v-0.1c-1.1,0.1-2.2,0.4-3.2,0.9l0.1,0.1c0.2,0.3,0.2,0.6,0,0.9
	c-0.2,0.3-0.5,0.4-0.8,0.4c-0.3,0-0.6-0.2-0.8-0.4l-0.1-0.1c-0.9,0.6-1.7,1.4-2.4,2.4l0.1,0.1c0.3,0.2,0.4,0.4,0.4,0.8
	c0,0.3-0.2,0.6-0.4,0.8c-0.3,0.2-0.6,0.2-0.9,0L20,24.3c-0.5,1-0.8,2.1-0.9,3.2h0.1c0.5,0,0.9,0.4,0.9,0.9
	C20.1,28.9,19.7,29.3,19.2,29.3z M26.7,24.1c0.4-0.3,0.8-0.6,1.2-0.7V23c0-0.5,0.4-0.9,0.9-0.9c0.5,0,0.9,0.4,0.9,0.9v0.4
	c0.5,0.1,0.9,0.4,1.2,0.7c0.3,0.4,0.3,0.9,0,1.2c-0.3,0.3-0.9,0.4-1.2,0c-0.5-0.5-1.3-0.5-1.8,0c-0.4,0.4-0.5,0.9-0.3,1.4
	c0.2,0.5,0.6,0.8,1.2,0.8c1.5,0,2.8,1.1,3,2.6c0.2,1.5-0.7,2.9-2.1,3.3v0.3c0,0.5-0.4,0.9-0.9,0.9c-0.5,0-0.9-0.4-0.9-0.9v-0.3
	c-0.5-0.1-0.9-0.4-1.2-0.7c-0.3-0.4-0.3-0.9,0-1.2c0.3-0.3,0.9-0.4,1.2,0c0.5,0.5,1.3,0.5,1.8,0c0.4-0.4,0.5-0.9,0.3-1.4
	c-0.2-0.5-0.6-0.8-1.2-0.8c-1.2,0-2.3-0.7-2.8-1.9C25.6,26.3,25.9,25,26.7,24.1z"/>
</svg>
