<?xml version="1.0" encoding="utf-8"?>
<!-- Generator: Adobe Illustrator 22.0.0, SVG Export Plug-In . SVG Version: 6.00 Build 0)  -->
<svg version="1.1" id="Capa_1" xmlns="http://www.w3.org/2000/svg" xmlns:xlink="http://www.w3.org/1999/xlink" x="0px" y="0px"
	 viewBox="0 0 55 55" style="enable-background:new 0 0 55 55;" xml:space="preserve">
<g>
	<g>
		<g>
			<path d="M46.2,15.9c0-0.5-0.4-0.9-0.9-0.9h-1.8v22.3h0.9c0.5,0,0.9,0.4,0.9,0.9c0,0.5-0.4,0.9-0.9,0.9H10.5
				c-0.5,0-0.9-0.4-0.9-0.9c0-0.5,0.4-0.9,0.9-0.9h0.9V15H9.6c-0.5,0-0.9,0.4-0.9,0.9v25h37.5V15.9z"/>
			<path d="M41.8,3.4c0-0.5-0.4-0.9-0.9-0.9H14.1c-0.5,0-0.9,0.4-0.9,0.9v33.9h28.6L41.8,3.4L41.8,3.4z M22.1,4.3h2.7
				c0.5,0,0.9,0.4,0.9,0.9c0,0.5-0.4,0.9-0.9,0.9h-2.7c-0.5,0-0.9-0.4-0.9-0.9S21.6,4.3,22.1,4.3z M16.8,9.6h-0.9
				c-0.5,0-0.9-0.4-0.9-0.9s0.4-0.9,0.9-0.9h0.9c0.5,0,0.9,0.4,0.9,0.9S17.3,9.6,16.8,9.6z M18.6,6.1h-2.7c-0.5,0-0.9-0.4-0.9-0.9
				c0-0.5,0.4-0.9,0.9-0.9h2.7c0.5,0,0.9,0.4,0.9,0.9S19.1,6.1,18.6,6.1z M19.5,8.8c0-0.5,0.4-0.9,0.9-0.9h7.1
				c0.5,0,0.9,0.4,0.9,0.9S28,9.6,27.5,9.6h-7.1C19.9,9.6,19.5,9.2,19.5,8.8z M32.9,26.6c0,2.2-1.9,4-4.5,4.4v1
				c0,0.5-0.4,0.9-0.9,0.9s-0.9-0.4-0.9-0.9v-1c-2.5-0.4-4.5-2.2-4.5-4.4c0-0.5,0.4-0.9,0.9-0.9c0.5,0,0.9,0.4,0.9,0.9
				c0,1.2,1.1,2.3,2.7,2.6v-5.3c-2.5-0.4-4.5-2.2-4.5-4.4s1.9-4,4.5-4.4v-1c0-0.5,0.4-0.9,0.9-0.9c0.5,0,0.9,0.4,0.9,0.9v1
				c2.5,0.4,4.5,2.2,4.5,4.4c0,0.5-0.4,0.9-0.9,0.9c-0.5,0-0.9-0.4-0.9-0.9c0-1.2-1.1-2.3-2.7-2.6v5.3
				C30.9,22.6,32.9,24.4,32.9,26.6z"/>
			<path d="M23.9,19.5c0,1.2,1.1,2.3,2.7,2.6v-5.2C25.1,17.2,23.9,18.2,23.9,19.5z"/>
			<path d="M2.5,50.7v0.9c0,0.5,0.4,0.9,0.9,0.9h48.2c0.5,0,0.9-0.4,0.9-0.9v-0.9H2.5z"/>
			<path d="M46.7,42.7H8.3l-4.9,6.2h48.1L46.7,42.7z M9.6,47.1H8.8c-0.5,0-0.9-0.4-0.9-0.9c0-0.5,0.4-0.9,0.9-0.9h0.9
				c0.5,0,0.9,0.4,0.9,0.9C10.5,46.7,10.1,47.1,9.6,47.1z M41.8,47.1H13.2c-0.5,0-0.9-0.4-0.9-0.9c0-0.5,0.4-0.9,0.9-0.9h28.6
				c0.5,0,0.9,0.4,0.9,0.9C42.7,46.7,42.3,47.1,41.8,47.1z M46.2,47.1h-0.9c-0.5,0-0.9-0.4-0.9-0.9c0-0.5,0.4-0.9,0.9-0.9h0.9
				c0.5,0,0.9,0.4,0.9,0.9C47.1,46.7,46.7,47.1,46.2,47.1z"/>
			<path d="M28.4,29.2c1.5-0.3,2.7-1.3,2.7-2.6c0-1.2-1.1-2.3-2.7-2.6V29.2z"/>
		</g>
	</g>
</g>
</svg>
