<?xml version="1.0" encoding="iso-8859-1"?>
<!-- Generator: Adobe Illustrator 19.0.0, SVG Export Plug-In . SVG Version: 6.00 Build 0)  -->
<svg version="1.1" id="Capa_1" xmlns="http://www.w3.org/2000/svg" xmlns:xlink="http://www.w3.org/1999/xlink" x="0px" y="0px"
	 viewBox="0 0 512 512" style="enable-background:new 0 0 512 512;" xml:space="preserve">
<path style="fill:#C0BCC1;" d="M421.161,512H90.839c-13.682,0-24.774-11.092-24.774-24.774V24.774C66.065,11.092,77.156,0,90.839,0
	h330.323c13.682,0,24.774,11.092,24.774,24.774v462.452C445.935,500.908,434.844,512,421.161,512z"/>
<path style="fill:#FFFFFF;" d="M425.29,445.935H86.71c-2.28,0-4.129-1.849-4.129-4.129V37.161c0-2.28,1.849-4.129,4.129-4.129
	h338.58c2.28,0,4.129,1.849,4.129,4.129v404.645C429.419,444.087,427.571,445.935,425.29,445.935z"/>
<g>
	<path style="fill:#FFC350;" d="M165.161,126.353v-25.819c5.071,1.853,8.258,5.214,8.258,8.369c0,4.565,3.694,8.258,8.258,8.258
		s8.258-3.694,8.258-8.258c0-12.464-10.398-22.563-24.774-25.428v-0.894c0-4.565-3.694-8.258-8.258-8.258s-8.258,3.694-8.258,8.258
		v0.894c-14.376,2.866-24.774,12.965-24.774,25.428c0,17.426,13.696,24.766,24.774,29.002v25.819
		c-5.071-1.853-8.258-5.214-8.258-8.369c0-4.565-3.694-8.258-8.258-8.258s-8.258,3.694-8.258,8.258
		c0,12.464,10.398,22.563,24.774,25.428v0.894c0,4.565,3.694,8.258,8.258,8.258s8.258-3.694,8.258-8.258v-0.894
		c14.376-2.866,24.774-12.965,24.774-25.428C189.935,137.928,176.239,130.589,165.161,126.353z M140.387,108.903
		c0-3.155,3.187-6.516,8.258-8.369v19.269C141.896,116.313,140.387,113.21,140.387,108.903z M165.161,163.724v-19.269
		c6.749,3.491,8.258,6.594,8.258,10.9C173.419,158.51,170.232,161.871,165.161,163.724z"/>
	<path style="fill:#FFC350;" d="M330.323,107.355h-16.516c-4.565,0-8.258-3.694-8.258-8.258c0-4.565,3.694-8.258,8.258-8.258h16.516
		c4.565,0,8.258,3.694,8.258,8.258S334.887,107.355,330.323,107.355z"/>
	<path style="fill:#FFC350;" d="M280.773,107.355h-57.806c-4.565,0-8.258-3.694-8.258-8.258c0-4.565,3.694-8.258,8.258-8.258h57.806
		c4.565,0,8.258,3.694,8.258,8.258C289.032,103.661,285.339,107.355,280.773,107.355z"/>
</g>
<path style="fill:#E1A546;" d="M330.323,140.387H222.968c-4.565,0-8.258-3.694-8.258-8.258s3.694-8.258,8.258-8.258h107.355
	c4.565,0,8.258,3.694,8.258,8.258C338.581,136.693,334.887,140.387,330.323,140.387z"/>
<g>
	<path style="fill:#FFC350;" d="M330.323,173.419h-16.516c-4.565,0-8.258-3.694-8.258-8.258s3.694-8.258,8.258-8.258h16.516
		c4.565,0,8.258,3.694,8.258,8.258S334.887,173.419,330.323,173.419z"/>
	<path style="fill:#FFC350;" d="M280.773,173.419h-57.806c-4.565,0-8.258-3.694-8.258-8.258s3.694-8.258,8.258-8.258h57.806
		c4.565,0,8.258,3.694,8.258,8.258S285.339,173.419,280.773,173.419z"/>
</g>
<path style="fill:#AEA8AF;" d="M264.258,491.355h-16.516c-6.839,0-12.387-5.548-12.387-12.387s5.548-12.387,12.387-12.387h16.516
	c6.839,0,12.387,5.548,12.387,12.387S271.096,491.355,264.258,491.355z"/>
<path style="fill:#EDEBED;" d="M256,421.161c-82.094,0-148.645-66.551-148.645-148.645V33.032H86.71
	c-2.28,0-4.129,1.849-4.129,4.129v404.645c0,2.28,1.849,4.129,4.129,4.129h338.58c2.28,0,4.129-1.849,4.129-4.129v-20.645H256z"/>
<path style="fill:#C9C6CA;" d="M388.129,222.968H123.871c-4.565,0-8.258,3.694-8.258,8.258v148.645c0,4.565,3.694,8.258,8.258,8.258
	h264.258c4.565,0,8.258-3.694,8.258-8.258V231.226C396.387,226.661,392.694,222.968,388.129,222.968z M280.773,322.065v-33.032
	h41.29v33.032H280.773z M322.065,338.581v33.032h-41.29v-33.032H322.065z M132.129,289.032h132.129v33.032H132.129V289.032z
	 M280.773,272.516v-33.032h41.29v33.032H280.773z M338.581,289.032h41.29v33.032h-41.29V289.032z M379.871,272.516h-41.29v-33.032
	h41.29V272.516z M264.258,239.484v33.032H132.129v-33.032H264.258z M132.129,338.581h132.129v33.032H132.129V338.581z
	 M338.581,371.613v-33.032h41.29v33.032H338.581z"/>
<g>
</g>
<g>
</g>
<g>
</g>
<g>
</g>
<g>
</g>
<g>
</g>
<g>
</g>
<g>
</g>
<g>
</g>
<g>
</g>
<g>
</g>
<g>
</g>
<g>
</g>
<g>
</g>
<g>
</g>
</svg>
