<?xml version="1.0" encoding="utf-8"?>
<!-- Generator: Adobe Illustrator 22.0.0, SVG Export Plug-In . SVG Version: 6.00 Build 0)  -->
<svg version="1.1" id="Layer_1" xmlns="http://www.w3.org/2000/svg" xmlns:xlink="http://www.w3.org/1999/xlink" x="0px" y="0px"
	 viewBox="0 0 55 55" style="enable-background:new 0 0 55 55;" xml:space="preserve">
<g>
	<g>
		<g>
			<path d="M19,21.6c0.1,0,0.3,0.1,0.4,0.1l2.3,1.9v-7.5h-5.5v7.5l2.3-1.9C18.6,21.6,18.8,21.6,19,21.6z"/>
			<path d="M8,44.9h8.2V38H8C8,38,8,44.9,8,44.9z M10,39.4h4.1c0.4,0,0.7,0.3,0.7,0.7s-0.3,0.7-0.7,0.7H10c-0.4,0-0.7-0.3-0.7-0.7
				S9.7,39.4,10,39.4z M10,42.1h2.7c0.4,0,0.7,0.3,0.7,0.7s-0.3,0.7-0.7,0.7H10c-0.4,0-0.7-0.3-0.7-0.7S9.7,42.1,10,42.1z"/>
			<path d="M24.4,23.6v-7.5h-1.4v7.6c0,0.5-0.3,1-0.7,1.2c-0.5,0.2-1,0.2-1.4-0.2l-2-1.6l-2,1.6c-0.2,0.2-0.5,0.3-0.8,0.3
				c-0.2,0-0.4,0-0.6-0.1c-0.5-0.2-0.7-0.7-0.7-1.2v-7.6H5.9c-1.9,0-3.4,1.5-3.4,3.4v26.1C2.5,47.5,4,49,5.9,49H32
				c1.9,0,3.4-1.5,3.4-3.4V27.1h-7.5C26,27.1,24.4,25.5,24.4,23.6z M17.6,45.6c0,0.4-0.3,0.7-0.7,0.7H7.3c-0.4,0-0.7-0.3-0.7-0.7
				v-8.2c0-0.4,0.3-0.7,0.7-0.7h9.6c0.4,0,0.7,0.3,0.7,0.7V45.6L17.6,45.6z"/>
		</g>
	</g>
</g>
<g>
	<path d="M39.3,12.7c-2.3,0-4.2,1.7-4.2,3.8s1.9,3.8,4.2,3.8c2.3,0,4.2-1.7,4.2-3.8S41.7,12.7,39.3,12.7z"/>
	<path d="M50.4,10h-3.7l-1.8-4H33.8L32,10h-0.6V8h-2.6v2h-0.5c-1.2,0-2.1,0.9-2.1,1.9v11.6c0,1.1,0.9,1.9,2.1,1.9h22.1
		c1.2,0,2.1-0.9,2.1-1.9V11.9C52.5,10.8,51.5,10,50.4,10z M30.6,10h-0.9V8.8h0.9V10z M39.3,23.8c-4.4,0-7.9-3.2-7.9-7.1
		s3.5-7.1,7.9-7.1s7.9,3.2,7.9,7.1S43.7,23.8,39.3,23.8z M49,14.7c-1,0-1.8-0.7-1.8-1.6s0.8-1.6,1.8-1.6c1,0,1.8,0.7,1.8,1.6
		S49.9,14.7,49,14.7z"/>
</g>
</svg>
