<?xml version="1.0" standalone="no"?>
<!DOCTYPE svg PUBLIC "-//W3C//DTD SVG 20010904//EN"
 "http://www.w3.org/TR/2001/REC-SVG-20010904/DTD/svg10.dtd">
<svg version="1.0" xmlns="http://www.w3.org/2000/svg"
 width="1800.000000pt" height="1800.000000pt" viewBox="0 0 1800.000000 1800.000000"
 preserveAspectRatio="xMidYMid meet">
<metadata>
Created by potrace 1.11, written by Peter Selinger 2001-2013
</metadata>
<g transform="translate(0.000000,1800.000000) scale(0.100000,-0.100000)"
fill="#000000" stroke="none">
<path d="M2607 15944 c-1 -1 -92 -4 -202 -7 -216 -5 -266 -15 -350 -70 -50
-32 -125 -101 -158 -147 -31 -43 -82 -144 -92 -185 -14 -58 -14 -151 1 -215
49 -209 222 -358 438 -377 39 -4 499 -7 1021 -7 864 0 956 2 1019 17 190 47
331 187 381 378 7 25 11 81 10 125 -5 154 -80 288 -217 390 -87 64 -161 84
-325 90 -136 5 -1522 12 -1526 8z"/>
<path d="M10226 15753 c-3 -3 -1177 -14 -2066 -18 -814 -4 -928 -6 -1045 -21
-281 -35 -494 -108 -695 -238 -51 -33 -336 -259 -360 -285 -3 -4 -27 -24 -55
-45 -27 -22 -57 -47 -66 -55 -9 -9 -25 -23 -35 -31 -11 -8 -46 -37 -79 -65
-33 -27 -70 -59 -84 -70 -28 -23 -120 -103 -137 -119 -6 -6 -38 -34 -70 -62
-76 -66 -93 -82 -247 -228 -141 -133 -245 -210 -354 -261 -78 -36 -188 -70
-268 -81 -27 -3 -59 -9 -70 -11 -11 -2 -135 -3 -275 -2 -586 5 -2031 2 -2235
-4 -577 -18 -656 -24 -885 -72 -114 -24 -341 -118 -463 -191 -190 -115 -301
-217 -475 -439 -4 -5 -24 -37 -44 -70 -115 -191 -175 -373 -195 -585 -14 -155
-3 -8390 11 -8530 11 -97 19 -151 32 -210 9 -36 17 -72 19 -81 23 -107 133
-349 213 -465 270 -397 718 -655 1197 -691 172 -13 2595 -3 2636 11 8 3 32 8
54 11 36 5 57 8 120 20 11 2 33 4 48 4 21 1 26 4 20 15 -7 13 -106 122 -204
227 -182 193 -302 332 -387 449 -110 151 -217 229 -362 266 -57 15 -160 17
-875 19 -445 1 -826 5 -845 8 -19 3 -55 9 -78 12 -237 34 -403 137 -480 299
-35 74 -67 182 -78 261 -3 27 -8 61 -11 75 -7 44 -12 812 -18 3260 -11 4857
-12 4720 16 4850 31 146 77 239 159 321 74 75 154 119 270 148 183 46 136 45
2215 55 1043 5 1329 9 1405 21 98 14 210 47 297 86 134 60 199 114 473 389
146 146 317 313 380 370 63 58 139 128 170 155 30 28 77 71 105 97 258 240
457 348 760 414 104 23 156 24 1225 29 542 3 1226 7 1520 8 294 2 553 0 575
-4 22 -4 59 -10 82 -13 70 -9 230 -67 293 -105 50 -30 307 -222 344 -255 6 -6
40 -33 76 -61 36 -27 79 -62 95 -76 17 -15 64 -55 105 -89 159 -131 295 -261
550 -526 124 -128 228 -208 355 -272 72 -37 203 -85 259 -96 12 -3 46 -10 76
-16 137 -28 236 -29 1220 -15 684 10 2159 12 2243 3 184 -20 329 -80 426 -176
70 -69 114 -139 146 -235 54 -161 52 -81 54 -2584 5 -4688 4 -5659 -3 -5718
-4 -33 -12 -78 -18 -100 -6 -22 -11 -44 -13 -50 -20 -89 -98 -219 -169 -283
-76 -68 -220 -130 -366 -157 -41 -8 -394 -14 -1175 -19 -313 -2 -582 -6 -597
-10 -16 -3 -40 -8 -55 -11 -16 -2 -55 -15 -88 -27 -76 -28 -161 -112 -402
-398 -33 -40 -443 -543 -443 -544 0 -1 8 -2 18 -2 17 -1 267 -20 372 -30 30
-3 228 -4 440 -3 501 1 1468 1 1733 -1 114 0 210 1 215 3 4 3 35 7 69 11 49 5
168 28 263 51 72 17 226 76 320 122 138 67 254 142 363 237 75 64 99 88 188
188 54 61 148 205 203 312 30 58 53 106 50 106 -2 0 2 12 9 27 28 56 89 253
101 328 2 17 8 50 11 75 4 25 9 54 12 65 18 87 19 256 8 950 -28 1835 -38
4556 -21 6240 10 950 10 978 2 1066 -50 547 -325 1025 -761 1319 -165 112
-423 219 -610 255 -183 35 -236 38 -510 35 -501 -6 -2454 -5 -2670 2 -235 7
-273 15 -419 88 -75 37 -206 132 -304 221 -20 19 -55 49 -77 68 -51 43 -183
162 -238 214 -23 22 -75 69 -116 106 -41 36 -81 73 -90 82 -64 63 -334 286
-441 365 -252 184 -540 317 -778 360 -12 2 -50 9 -85 16 -49 9 -622 19 -631
11z"/>
<path d="M8867 13094 c-1 -1 -87 -4 -192 -8 -104 -3 -199 -8 -210 -10 -11 -2
-60 -7 -110 -12 -49 -4 -92 -8 -95 -9 -3 0 -32 -5 -65 -9 -32 -4 -66 -9 -75
-11 -8 -1 -35 -6 -60 -10 -697 -106 -1446 -400 -2067 -812 -1063 -703 -1850
-1750 -2227 -2964 -32 -102 -96 -340 -110 -409 -3 -14 -14 -68 -25 -120 -10
-52 -22 -113 -25 -134 -4 -21 -9 -48 -11 -60 -3 -12 -7 -37 -9 -56 -4 -37 -15
-119 -22 -160 -2 -14 -6 -56 -9 -95 -4 -38 -8 -76 -10 -83 -9 -26 -19 -327
-19 -522 1 -239 8 -381 29 -575 9 -83 36 -291 40 -305 2 -8 6 -33 10 -55 3
-22 15 -85 26 -140 12 -55 23 -109 25 -120 45 -246 205 -745 323 -1010 10 -22
31 -69 47 -105 95 -216 257 -508 409 -740 167 -254 339 -476 528 -684 625
-684 1408 -1190 2292 -1481 168 -55 456 -135 540 -149 17 -2 77 -14 135 -25
58 -12 125 -24 150 -27 25 -3 52 -7 60 -9 8 -2 38 -7 65 -10 28 -4 60 -8 73
-10 13 -2 53 -7 90 -10 37 -4 77 -8 90 -10 116 -19 697 -26 897 -12 115 9 197
16 240 22 17 2 60 7 95 10 36 3 72 8 80 10 8 2 35 7 60 10 25 2 56 7 70 10 14
3 54 10 90 15 36 6 137 27 225 47 716 160 1372 451 1965 871 93 66 351 269
405 318 11 11 43 39 70 63 122 108 332 320 451 456 523 595 912 1304 1139
2070 56 187 128 504 150 650 3 23 7 52 10 65 5 26 21 148 30 225 3 28 8 64 10
80 2 17 6 71 10 120 3 50 8 119 11 155 7 83 6 456 0 580 -7 122 -16 248 -21
280 -2 14 -7 53 -10 88 -4 35 -8 71 -10 80 -1 9 -6 42 -10 72 -4 30 -9 64 -11
75 -2 11 -9 49 -15 85 -18 112 -57 294 -94 437 -20 76 -38 146 -40 155 -9 42
-129 394 -136 403 -5 5 -9 15 -9 22 0 36 -185 441 -297 653 -356 667 -880
1279 -1498 1749 -112 85 -125 94 -285 201 -401 267 -849 481 -1315 628 -138
44 -349 103 -419 116 -11 3 -88 18 -171 34 -82 17 -174 33 -204 37 -30 4 -63
9 -75 11 -12 2 -46 6 -76 9 -30 3 -66 8 -80 10 -14 3 -61 7 -105 10 -44 4
-105 8 -135 11 -30 2 -156 7 -280 10 -124 3 -242 6 -263 7 -21 1 -39 2 -40 1z
m343 -1298 c90 -5 250 -23 380 -42 19 -3 89 -16 155 -29 615 -123 1205 -392
1729 -789 72 -54 135 -104 141 -110 7 -6 43 -38 81 -71 156 -136 352 -336 469
-479 22 -27 52 -63 66 -80 232 -283 468 -689 620 -1070 110 -274 218 -669 245
-899 4 -29 8 -55 10 -58 2 -4 6 -37 10 -74 3 -37 7 -76 10 -88 23 -122 23
-718 0 -844 -2 -10 -7 -47 -11 -83 -9 -92 -12 -115 -19 -147 -3 -15 -8 -44
-11 -63 -4 -19 -15 -77 -26 -129 -11 -51 -22 -101 -24 -110 -12 -55 -82 -286
-121 -396 -117 -327 -299 -681 -496 -963 -32 -46 -69 -98 -81 -115 -12 -18
-24 -34 -27 -37 -3 -3 -30 -36 -60 -75 -30 -38 -57 -72 -60 -75 -3 -3 -34 -39
-69 -80 -123 -142 -366 -378 -506 -490 -44 -36 -82 -67 -85 -70 -23 -27 -437
-310 -454 -310 -2 0 -33 -17 -67 -38 -239 -145 -702 -337 -979 -407 -63 -16
-148 -37 -163 -40 -10 -2 -26 -6 -35 -9 -31 -10 -344 -62 -422 -70 -241 -28
-770 -28 -910 -1 -13 3 -49 7 -80 10 -31 3 -66 7 -80 10 -13 3 -42 7 -65 11
-414 61 -987 264 -1350 479 -42 25 -79 45 -81 45 -19 0 -375 249 -489 341
-160 130 -403 366 -532 515 -417 486 -696 1000 -872 1609 -24 82 -69 270 -77
322 -5 34 -7 46 -18 103 -6 31 -13 78 -21 155 -4 33 -9 71 -11 85 -25 159 -25
846 0 1000 3 14 7 48 11 75 58 487 263 1059 544 1521 96 159 316 465 396 550
5 6 39 44 75 85 176 198 420 421 661 602 47 36 246 172 281 192 10 5 62 36
115 69 135 80 430 223 598 289 114 45 358 126 425 142 8 2 71 17 140 34 147
35 277 58 435 77 33 3 68 8 77 10 9 1 72 6 140 9 68 4 124 8 125 9 4 3 268 -2
363 -8z"/>
</g>
</svg>
