<?xml version="1.0" standalone="no"?>
<!DOCTYPE svg PUBLIC "-//W3C//DTD SVG 20010904//EN"
 "http://www.w3.org/TR/2001/REC-SVG-20010904/DTD/svg10.dtd">
<svg version="1.0" xmlns="http://www.w3.org/2000/svg"
 width="400.000000pt" height="400.000000pt" viewBox="0 0 400.000000 400.000000"
 preserveAspectRatio="xMidYMid meet">
<metadata>
Created by potrace 1.11, written by Peter Selinger 2001-2013
</metadata>
<g transform="translate(0.000000,400.000000) scale(0.100000,-0.100000)"
fill="#000000" stroke="none">
<path d="M1436 3618 c-80 -17 -187 -90 -233 -159 -14 -21 -51 -105 -82 -186
l-56 -147 -265 -2 c-244 -1 -270 -3 -328 -23 -159 -55 -278 -180 -324 -339
-19 -64 -19 -110 -20 -1002 0 -710 2 -949 12 -995 17 -81 59 -161 120 -228 65
-71 132 -114 224 -142 l75 -23 1436 0 c1560 0 1495 -2 1613 56 71 34 171 131
210 202 64 115 62 84 62 1116 0 1025 0 1010 -58 1118 -38 70 -140 169 -209
205 -100 50 -128 54 -406 55 -223 1 -260 3 -267 17 -5 9 -30 71 -55 140 -26
68 -57 143 -71 166 -42 73 -147 149 -234 169 -44 10 -1096 12 -1144 2z"/>
</g>
</svg>
