<?xml version="1.0" encoding="utf-8"?>
<!-- Generator: Adobe Illustrator 22.0.0, SVG Export Plug-In . SVG Version: 6.00 Build 0)  -->
<svg version="1.1" id="Layer_1" xmlns="http://www.w3.org/2000/svg" xmlns:xlink="http://www.w3.org/1999/xlink" x="0px" y="0px"
	 viewBox="0 0 1300 425" style="enable-background:new 0 0 1300 425;" xml:space="preserve">
<style type="text/css">
	.st0{display:none;}
	.st1{display:inline;}
	.st2{display:none;fill:#35404C;}
	.st3{display:none;fill:#343F3E;}
	.st4{display:none;fill:#333D3C;}
	.st5{fill:#343F3E;}
	.st6{fill:#3B4342;}
	.st7{display:none;fill:#323B3A;}
	.st8{display:none;fill:#303A39;}
	.st9{fill:#323B3A;}
	.st10{fill:#384040;}
	.st11{fill:#3D4745;}
	.st12{fill:#3A4241;}
	.st13{display:none;fill:#3B4342;}
	.st14{display:none;fill:#3A4444;}
	.st15{fill:#3A4444;}
	.st16{fill:#293130;}
	.st17{fill:#3F4746;}
	.st18{display:none;fill:#2B3635;}
	.st19{opacity:0.3;fill:url(#SVGID_1_);enable-background:new    ;}
	.st20{display:none;fill:url(#SVGID_2_);}
	.st21{display:none;fill:url(#SVGID_3_);}
	.st22{opacity:0.3;fill:url(#SVGID_4_);enable-background:new    ;}
	.st23{fill:url(#SVGID_5_);}
	.st24{fill:url(#SVGID_6_);}
	.st25{fill:url(#SVGID_7_);}
	.st26{fill:url(#SVGID_8_);}
	.st27{fill:url(#SVGID_9_);}
	.st28{fill:url(#SVGID_10_);}
	.st29{fill:url(#SVGID_11_);}
	.st30{fill:url(#SVGID_12_);}
	.st31{fill:url(#SVGID_13_);}
	.st32{fill:url(#SVGID_14_);}
	.st33{fill:url(#SVGID_15_);}
	.st34{fill:url(#SVGID_16_);}
	.st35{fill:url(#SVGID_17_);}
	.st36{fill:url(#SVGID_18_);}
	.st37{fill:url(#SVGID_19_);}
	.st38{fill:url(#SVGID_20_);}
	.st39{fill:url(#SVGID_21_);}
	.st40{fill:url(#SVGID_22_);}
	.st41{fill:url(#SVGID_23_);}
	.st42{fill:url(#SVGID_24_);}
	.st43{fill:url(#SVGID_25_);}
	.st44{fill:url(#SVGID_26_);}
	.st45{fill:url(#SVGID_27_);}
	.st46{fill:url(#SVGID_28_);}
	.st47{fill:url(#SVGID_29_);}
	.st48{fill:url(#SVGID_30_);}
	.st49{fill:url(#SVGID_31_);}
	.st50{fill:url(#SVGID_32_);}
	.st51{fill:url(#SVGID_33_);}
	.st52{fill:url(#SVGID_34_);}
	.st53{fill:url(#SVGID_35_);}
	.st54{opacity:0.3;fill:url(#SVGID_36_);enable-background:new    ;}
	.st55{opacity:0.3;fill:url(#SVGID_37_);enable-background:new    ;}
	.st56{opacity:0.3;fill:url(#SVGID_38_);enable-background:new    ;}
	.st57{opacity:0.3;fill:url(#SVGID_39_);enable-background:new    ;}
</style>
<g class="st0">
	<g class="st1">
		<path class="st2" d="M818.2-6.9c-3.3,0-5.9,0.3-8.3-0.1c-1.7-0.3-3.1-1.7-4.7-2.7c1.6-1.1,3-2.8,4.8-3.2c2.4-0.6,4.9-0.1,8.1-0.1
			c0-3.2-0.3-6.1,0.1-9c0.2-1.6,1.8-3,2.7-4.4c1,1.4,2.6,2.7,2.9,4.2c0.6,2.7,0.4,5.6,0.5,9.1c2.9,0,5.9-0.4,8.7,0.1
			c1.6,0.3,3,1.9,4.5,3c-1.5,1-2.9,2.1-4.5,3c-0.7,0.3-1.6,0.1-2.5,0.1c-6.5,0-6.5,0-6.5,6.5c0,1,0.1,2.1-0.3,2.9
			c-0.7,1.3-1.8,2.4-2.8,3.6c-1-1.3-2.6-2.5-2.8-4C817.8-0.7,818.2-3.5,818.2-6.9z"/>
		<path class="st3" d="M854,22.6c0,2.3,0,4.2,0,6.3c-9.2,0-18.3,0-27.7,0c0-2,0-4.1,0-6.3C835.5,22.6,844.4,22.6,854,22.6z"/>
		<path class="st4" d="M844.1,330c0,11,0,19.9,0,29.2c-2.2,0-4.2,0-6.7,0c0-8.7-0.2-17.1,0.3-25.4
			C837.7,332.7,841.2,331.7,844.1,330z"/>
		<path class="st5" d="M94.7,408c-1.8,1.6-3.2,2.9-4.8,4.5c-1.7-1.6-3.2-3-4.9-4.6c1.5-1.7,2.8-3.1,4.4-4.9
			C91.2,404.7,92.8,406.2,94.7,408z"/>
		<path class="st6" d="M128.8,389.6c0,2.2,0,4.2,0,6.4c-2.1,0-4.2,0-6.2,0C121.5,389.3,121.8,388.9,128.8,389.6z"/>
		<path class="st7" d="M837.6,374c0-2,0-3.8,0-5.9c2.1,0,4.1,0,6.4,0c0,1.8,0,3.7,0,5.9C842,374,839.9,374,837.6,374z"/>
		<path class="st8" d="M404.9,38.3c2.2,0,3.9,0,5.8,0c0,2,0,3.8,0,6.1c-1.7,0.2-3.6,0.4-5.8,0.6C404.9,42.6,404.9,40.5,404.9,38.3z"
			/>
		<path class="st6" d="M119.8,402.8c1.5,1.6,2.8,3,4.5,4.8c-1.8,1.7-3.5,3.2-5.4,5c-1.6-2-2.7-3.5-4.1-5.2
			C116.5,405.9,118,404.5,119.8,402.8z"/>
		<path class="st9" d="M107.7,369c0,2,0,3.8,0,5.9c-2.1,0-4.1,0-6.4,0c0-1.9,0-3.8,0-5.9C103.5,369,105.6,369,107.7,369z"/>
		<path class="st10" d="M114.4,378.1c1.9-1.8,3.3-3.1,4.9-4.6c1.7,1.5,3.1,2.8,5,4.4c-1.4,1.6-2.7,3.1-4.3,4.9
			C118,381.2,116.5,379.8,114.4,378.1z"/>
		<path class="st11" d="M101.3,416.9c0-2.3,0-4,0-6.2c2.1,0,4,0,6.4,0c0.1,2,0.2,3.9,0.3,6.2C105.7,416.9,103.6,416.9,101.3,416.9z"
			/>
		<path class="st4" d="M811.5,22.6c2.3,0,4,0,6,0c0,2.2,0,4.2,0,6.3c-2,0-3.9,0-6,0C811.5,26.9,811.5,25,811.5,22.6z"/>
		<path class="st10" d="M1129.8,148.4c1.7,1.9,3,3.4,5,5.5c-1.8,1.3-3.4,2.4-5.5,3.9c-0.9-0.9-2.3-2.2-4.2-4
			C1126.5,152.2,1127.8,150.7,1129.8,148.4z"/>
		<path class="st6" d="M1135.9,142.6c1.9-1.6,3.3-2.9,5.7-4.9c1,1.5,2.1,3.3,3.5,5.6c-1.2,0.8-2.7,2-4.8,3.5
			C1139.3,145.8,1137.8,144.4,1135.9,142.6z"/>
		<path class="st12" d="M85.4,377.8c1-1.1,2.5-2.7,4.4-4.7c1.8,2.1,3.2,3.7,4.6,5.4c-1.8,1.3-3.4,2.5-5.6,4.1
			C88.1,381.7,86.9,379.9,85.4,377.8z"/>
		<path class="st3" d="M413.6,47.4c2.3,0,4.2,0,6.3,0c0,2.1,0,4,0,6.3c-1.8,0.1-3.6,0.2-6,0.4C413.8,51.9,413.7,49.7,413.6,47.4z"/>
		<path class="st13" d="M837.7,383.1c2.2,0,4,0,6.2,0c0,2.1,0,4.1,0,6.5c-2,0-3.9,0-6.2,0C837.7,387.7,837.7,385.7,837.7,383.1z"/>
		<path class="st14" d="M795.8,28.9c0-2.2,0-4.1,0-6.2c2.2,0,4.1,0,6.3,0c0,2.1,0,4,0,6.2C800.2,28.9,798.2,28.9,795.8,28.9z"/>
		<path class="st11" d="M1151.9,148.6c1.6,1.7,2.9,3.1,4.5,4.8c-1.5,1.6-2.8,3.1-4.5,4.8c-1.6-1.6-3-2.9-4.8-4.6
			C1148.9,151.9,1150.3,150.3,1151.9,148.6z"/>
		<path class="st15" d="M1146.8,131.5c2.2-1.9,3.5-3.1,4.8-4.3c5.8,4.1,5.8,4.1-0.1,9C1150.1,134.8,1148.6,133.4,1146.8,131.5z"/>
		<path class="st16" d="M80.7,389.9c2.1,0,3.9,0,5.9,0c0,2,0,3.8,0,6c-1.9,0-3.8,0-5.9,0C80.7,394,80.7,392.2,80.7,389.9z"/>
		<path class="st17" d="M1134.6,131.4c-1.8,1.9-3.1,3.3-4.9,5.2c-1.7-2-3.1-3.5-4.8-5.5c1.5-1.3,3-2.5,5-4.1
			C1131.3,128.2,1132.7,129.6,1134.6,131.4z"/>
		<path class="st18" d="M419.7,29.4c0.1,2.2,0.2,4,0.4,6c-2.1,0-4,0-6.2,0c0-2,0-3.9,0-6C415.8,29.4,417.6,29.4,419.7,29.4z"/>
	</g>
</g>
<linearGradient id="SVGID_1_" gradientUnits="userSpaceOnUse" x1="45.7825" y1="326.3452" x2="59.859" y2="350.7265" gradientTransform="matrix(1 0 0 -1 0 426)">
	<stop  offset="0.1345" style="stop-color:#373B44"/>
	<stop  offset="1" style="stop-color:#4286F4"/>
</linearGradient>
<circle class="st19" cx="52.8" cy="87.5" r="14.1"/>
<linearGradient id="SVGID_2_" gradientUnits="userSpaceOnUse" x1="379.1484" y1="265.1562" x2="398.2314" y2="298.2089" gradientTransform="matrix(1 0 0 -1 0 426)">
	<stop  offset="0.1345" style="stop-color:#373B44"/>
	<stop  offset="1" style="stop-color:#4286F4"/>
</linearGradient>
<circle class="st20" cx="388.7" cy="144.3" r="19.1"/>
<linearGradient id="SVGID_3_" gradientUnits="userSpaceOnUse" x1="902.2892" y1="261.1338" x2="922.152" y2="295.5373" gradientTransform="matrix(1 0 0 -1 0 426)">
	<stop  offset="0.1345" style="stop-color:#373B44"/>
	<stop  offset="1" style="stop-color:#4286F4"/>
</linearGradient>
<circle class="st21" cx="912.2" cy="147.7" r="19.9"/>
<linearGradient id="SVGID_4_" gradientUnits="userSpaceOnUse" x1="1199.3484" y1="10.09" x2="1219.4095" y2="44.837" gradientTransform="matrix(1 0 0 -1 0 426)">
	<stop  offset="0.1345" style="stop-color:#373B44"/>
	<stop  offset="1" style="stop-color:#4286F4"/>
</linearGradient>
<circle class="st22" cx="1209.4" cy="398.5" r="20.1"/>
<g>
	
		<linearGradient id="SVGID_5_" gradientUnits="userSpaceOnUse" x1="183.0804" y1="-18.2745" x2="255.2377" y2="106.7056" gradientTransform="matrix(1 0 0 -1 0 426)">
		<stop  offset="0.1345" style="stop-color:#373B44"/>
		<stop  offset="1" style="stop-color:#4286F4"/>
	</linearGradient>
	<path class="st23" d="M290.5,357c-0.3-2.2-0.9-5.1-1.6-8.3c-1-4.1-2.1-3.4-5.5-5.4c0.4-1.7,0.7-3,1-3.9c0.4-2.2-0.1-2.3-1.9-3.8
		c-4.1-3.1-11.3-4.2-17.1-4.8c-1.8-0.2-2.6,0.4-3.8,1.3c-0.6-0.7-1-1.3-1.9-2.2c-1.3-1.4-2.3-5.3-3.2-6.8c-1.5-2.4-4.6-4.6-7-5.8
		c-0.8-0.4-1.1-0.5-2.1-0.6c0-1.1,0.1-2.4-0.9-2.4c-2.6-0.2-8.3-0.1-11.8-0.1c-3.8,0-5.8-0.1-9.7,0c-1.6,0-1.8,0.6-2,2.2
		c-2.9,1-7.2,2.8-9.5,6.6c-1.5,2.6-2.5,4.7-3.9,7c-2.9,4.6-14,6.6-33.8,7.8c-3.2-1.2-7.4-0.2-13.9,1.1c-8.4,1.8-15.5,7-16.3,15.5
		c-1.8,20.5-2.2,41.7-0.6,63.6c0.4,5.6,3.4,7.3,12,7.4l15.1,0.2c2.2,0,2.7-0.6,4.1-1h100.2c8.6,0,15.4-7,15.5-15.5
		C292.3,389.1,292.3,369.7,290.5,357z M166.8,346.9c-2.9,0.2-5.1-1-5.1-2.8c0-1.8,2.3-3.4,5.1-3.5c2.9-0.2,5.1,1,5.1,2.8
		C171.9,345.1,169.7,346.7,166.8,346.9z M179.6,418c0,0.6-0.5,1.1-1.1,1.1c-0.6,0-1.1-0.5-1.1-1.1v-55.2c0-0.6,0.5-1.1,1.1-1.1
		c0.6,0,1.1,0.5,1.1,1.1V418z M233.7,423.9c-22.1,0-40.1-17.9-40.1-40.1c0-22.1,17.9-40.1,40.1-40.1s40.1,17.9,40.1,40.1
		C273.7,405.9,255.7,423.9,233.7,423.9z M275.3,392.6l-1.6-0.1c1.1-5.9,1-11.7,0-17.5l1.6,0.1C281,381.2,280.7,387,275.3,392.6z"/>
	
		<linearGradient id="SVGID_6_" gradientUnits="userSpaceOnUse" x1="216.9176" y1="13.1009" x2="250.48" y2="71.2326" gradientTransform="matrix(1 0 0 -1 0 426)">
		<stop  offset="0.1345" style="stop-color:#373B44"/>
		<stop  offset="1" style="stop-color:#4286F4"/>
	</linearGradient>
	<path class="st24" d="M233.7,350.3c-18.6,0-33.6,15.1-33.6,33.6c0,18.6,15.1,33.6,33.6,33.6c18.6,0,33.6-15.1,33.6-33.6
		C267.3,365.3,252.2,350.3,233.7,350.3z M233.7,403.1c-10.6,0-19.2-8.6-19.2-19.2c0-10.6,8.6-19.2,19.2-19.2
		c10.7,0,19.2,8.6,19.2,19.2C252.8,394.5,244.3,403.1,233.7,403.1z"/>
</g>
<g>
	
		<linearGradient id="SVGID_7_" gradientUnits="userSpaceOnUse" x1="317.675" y1="15.1497" x2="339.4911" y2="52.9362" gradientTransform="matrix(1 0 0 -1 0 426)">
		<stop  offset="0.1345" style="stop-color:#373B44"/>
		<stop  offset="1" style="stop-color:#4286F4"/>
	</linearGradient>
	<path class="st25" d="M305.6,380.1v23.8h46.1v-23.8H305.6z M315.2,396.3c0,1.4-1.2,2.6-2.6,2.6c-1.4,0-2.6-1-2.6-2.6v-9
		c0-1.4,1.2-2.6,2.6-2.6c1.4,0,2.6,1.2,2.6,2.6V396.3z M325.8,396.3c0,1.4-1.2,2.6-2.6,2.6c-1.4,0-2.6-1-2.6-2.6v-9
		c0-1.4,1-2.6,2.6-2.6c1.4,0,2.6,1.2,2.6,2.6V396.3z M336.5,396.3c0,1.4-1.2,2.6-2.6,2.6c-1.4,0-2.6-1-2.6-2.6v-9
		c0-1.4,1.2-2.6,2.6-2.6c1.4,0,2.6,1.2,2.6,2.6V396.3z M347,396.3c0,1.4-1.2,2.6-2.6,2.6c-1.4,0-2.6-1-2.6-2.6v-9
		c0-1.4,1.2-2.6,2.6-2.6c1.4,0,2.6,1.2,2.6,2.6V396.3z"/>
	
		<linearGradient id="SVGID_8_" gradientUnits="userSpaceOnUse" x1="319.847" y1="40.5877" x2="335.697" y2="68.0406" gradientTransform="matrix(1 0 0 -1 0 426)">
		<stop  offset="0.1345" style="stop-color:#373B44"/>
		<stop  offset="1" style="stop-color:#4286F4"/>
	</linearGradient>
	<polygon class="st26" points="304.8,376.7 352.8,376.7 356.5,370 300.8,370 	"/>
	
		<linearGradient id="SVGID_9_" gradientUnits="userSpaceOnUse" x1="320.7671" y1="4.4692" x2="334.4941" y2="28.245" gradientTransform="matrix(1 0 0 -1 0 426)">
		<stop  offset="0.1345" style="stop-color:#373B44"/>
		<stop  offset="1" style="stop-color:#4286F4"/>
	</linearGradient>
	<polygon class="st27" points="310.7,415.7 346.7,415.7 351,407.2 306.4,407.2 	"/>
	
		<linearGradient id="SVGID_10_" gradientUnits="userSpaceOnUse" x1="323.0675" y1="-5.9352" x2="334.5255" y2="13.9107" gradientTransform="matrix(1 0 0 -1 0 426)">
		<stop  offset="0.1345" style="stop-color:#373B44"/>
		<stop  offset="1" style="stop-color:#4286F4"/>
	</linearGradient>
	<rect x="311" y="419.1" class="st28" width="35.6" height="5.9"/>
	
		<linearGradient id="SVGID_11_" gradientUnits="userSpaceOnUse" x1="316.7178" y1="49.6528" x2="340.9174" y2="91.5676" gradientTransform="matrix(1 0 0 -1 0 426)">
		<stop  offset="0.1345" style="stop-color:#373B44"/>
		<stop  offset="1" style="stop-color:#4286F4"/>
	</linearGradient>
	<path class="st29" d="M351.1,346.9l-1.7,6.6c-0.2,2.3-1.8,4.1-3.8,4.1c-2,0-3.5-1.7-3.8-4.1l-1.7-9.6h-22.6l-1.7,9.6
		c-0.3,2.3-2,4.1-3.8,4.1c-2,0-3.7-1.7-3.8-4.1l-1.7-6.6L300,344v22.6h57.7V344L351.1,346.9z"/>
</g>
<g>
	
		<linearGradient id="SVGID_12_" gradientUnits="userSpaceOnUse" x1="962.5126" y1="363.3706" x2="972.5745" y2="380.7983" gradientTransform="matrix(1 0 0 -1 0 426)">
		<stop  offset="0.1345" style="stop-color:#373B44"/>
		<stop  offset="1" style="stop-color:#4286F4"/>
	</linearGradient>
	<path class="st30" d="M965.2,44.3h4.8c2.1,0,4.3,1.6,4.3,4.3v10.7c0,2.1-2.1,4.3-4.3,4.3h-4.8c-2.1,0-4.3-2.1-4.3-4.3V48.7
		C960.9,46,963,44.3,965.2,44.3z"/>
	
		<linearGradient id="SVGID_13_" gradientUnits="userSpaceOnUse" x1="964.9341" y1="357.2291" x2="969.5352" y2="365.1985" gradientTransform="matrix(1 0 0 -1 0 426)">
		<stop  offset="0.1345" style="stop-color:#373B44"/>
		<stop  offset="1" style="stop-color:#4286F4"/>
	</linearGradient>
	<path class="st31" d="M975.3,64.1c-0.5,2.1-2.7,3.7-4.8,3.7h-5.9c-2.1,0-4.3-1.6-4.8-3.7H975.3z"/>
	
		<linearGradient id="SVGID_14_" gradientUnits="userSpaceOnUse" x1="956.2083" y1="363.2364" x2="964.9982" y2="378.4609" gradientTransform="matrix(1 0 0 -1 0 426)">
		<stop  offset="0.1345" style="stop-color:#373B44"/>
		<stop  offset="1" style="stop-color:#4286F4"/>
	</linearGradient>
	<path class="st32" d="M957.6,63.6c-0.5-3.2,0-9.1,0-12.2c0-2.7,1.6-4.8,3.7-5.9c-1.1,0.5-1.6,1.6-1.6,3.2v11.2
		c0,1.6,1.1,2.7,2.1,3.7C961.9,63.6,957.6,63.6,957.6,63.6z"/>
	
		<linearGradient id="SVGID_15_" gradientUnits="userSpaceOnUse" x1="971.0519" y1="363.6317" x2="979.0566" y2="377.4962" gradientTransform="matrix(1 0 0 -1 0 426)">
		<stop  offset="0.1345" style="stop-color:#373B44"/>
		<stop  offset="1" style="stop-color:#4286F4"/>
	</linearGradient>
	<path class="st33" d="M973.7,45.4c2.1,1.1,4.3,3.2,4.3,5.9c0,3.2,0,9.1-0.5,12.2h-4.3c1.1-1.1,2.1-2.1,2.1-3.7V48.7
		C975.3,47,974.7,46,973.7,45.4z"/>
	
		<linearGradient id="SVGID_16_" gradientUnits="userSpaceOnUse" x1="963.1121" y1="342.054" x2="972.0886" y2="357.6018" gradientTransform="matrix(1 0 0 -1 0 426)">
		<stop  offset="0.1345" style="stop-color:#373B44"/>
		<stop  offset="1" style="stop-color:#4286F4"/>
	</linearGradient>
	<path class="st34" d="M958.7,76.4l4.3-8h9.1l4.3,8l-4.3,7.5H963L958.7,76.4z M967.8,71c2.7,0,4.8,2.1,4.8,5.3
		c0,2.7-2.1,4.8-4.8,4.8c-3.2,0-5.3-2.1-5.3-4.8C962.5,73.2,964.6,71,967.8,71z"/>
	
		<linearGradient id="SVGID_17_" gradientUnits="userSpaceOnUse" x1="965.772" y1="346.5523" x2="969.4225" y2="352.8752" gradientTransform="matrix(1 0 0 -1 0 426)">
		<stop  offset="0.1345" style="stop-color:#373B44"/>
		<stop  offset="1" style="stop-color:#4286F4"/>
	</linearGradient>
	<path class="st35" d="M970.5,73.7c0.5,0.5,1.1,1.6,1.1,2.7c0,1.1-0.5,2.1-1.6,2.7c-0.5-0.5-1.6-1.1-2.1-1.1c-1.1,0-2.1,0.5-2.7,1.1
		c-1.1-0.5-1.6-1.6-1.6-2.7c0-1.1,0.5-2.1,1.1-2.7c0.5,0.5,1.6,1.1,3.2,1.1C968.9,74.8,970,74.2,970.5,73.7z"/>
	
		<linearGradient id="SVGID_18_" gradientUnits="userSpaceOnUse" x1="896.6057" y1="374.1447" x2="905.4251" y2="389.4203" gradientTransform="matrix(1 0 0 -1 0 426)">
		<stop  offset="0.1345" style="stop-color:#373B44"/>
		<stop  offset="1" style="stop-color:#4286F4"/>
	</linearGradient>
	<path class="st36" d="M890.4,43.8c12.8-0.5,21.9-1.1,25.1-1.1c1.1,0,0.5,0,0.5,0c-2.7,0.5-8,1.6-9.1,2.1c-1.1,0.5-2.7,1.1-2.7,1.1
		l-14.4,0.5C885,46.5,884.5,44.9,890.4,43.8z"/>
	
		<linearGradient id="SVGID_19_" gradientUnits="userSpaceOnUse" x1="935.3044" y1="330.3371" x2="955.7643" y2="365.7745" gradientTransform="matrix(1 0 0 -1 0 426)">
		<stop  offset="0.1345" style="stop-color:#373B44"/>
		<stop  offset="1" style="stop-color:#4286F4"/>
	</linearGradient>
	<polygon class="st37" points="940.6,95.6 935.2,95.6 935.2,92.4 938.4,82.8 939,82.3 940,79.1 946.4,67.3 953.3,59.9 956,60.4 
		948,68.4 942.7,78.5 943.2,78 944.3,78 944.3,78.5 946.4,78.5 945.4,80.7 944.3,80.7 939.5,91.9 941.6,91.9 	"/>
	
		<linearGradient id="SVGID_20_" gradientUnits="userSpaceOnUse" x1="914.2819" y1="362.062" x2="925.2729" y2="381.0991" gradientTransform="matrix(1 0 0 -1 0 426)">
		<stop  offset="0.1345" style="stop-color:#373B44"/>
		<stop  offset="1" style="stop-color:#4286F4"/>
	</linearGradient>
	<path class="st38" d="M911.2,50.8h5.3c0-1.1,0-8,0.5-8.5c0.5-0.5,1.1-0.5,1.6-0.5c0.5,0,1.6,0,1.6,0.5c1.1,0.5,0.5,7.5,0.5,8.5h5.3
		V62h-1c-0.5,1.1-1.6,2.1-2.7,2.1h-6.9c-1.6,0-2.7-1.1-2.7-2.1h-1.5V50.8z"/>
	
		<linearGradient id="SVGID_21_" gradientUnits="userSpaceOnUse" x1="933.9595" y1="365.9969" x2="946.499" y2="387.7156" gradientTransform="matrix(1 0 0 -1 0 426)">
		<stop  offset="0.1345" style="stop-color:#373B44"/>
		<stop  offset="1" style="stop-color:#4286F4"/>
	</linearGradient>
	<path class="st39" d="M956.6,59.3c0,0-6.4-0.5-8-1.1c-2.1-0.5-4.3-1.6-4.3-1.6L929.3,55l-2.1,1.1v-6.4h-5.9
		c0.5-0.5,3.2-3.2,4.8-3.2c1.1,0,2.1,0,3.2,0v-3.2c-3.2,0-5.9,0-7.5,0c-0.5,0,0-0.5,0-0.5c2.1,0,8-1.1,8.5-1.6
		c1.1-0.5,2.1-0.5,2.7-0.5v-4.3c0-0.5,1.1-1.1,1.6-1.1s1.1,0.5,1.1,1.1v4.3H948c4.8,0,5.3,1.6-1.1,2.7c-2.7,0-4.8,0-7.5,0V46
		l1.1,1.6l8.5,4.3c1.6,0.5,5.9-0.5,7.5-1.1L956.6,59.3L956.6,59.3z"/>
	
		<linearGradient id="SVGID_22_" gradientUnits="userSpaceOnUse" x1="918.1058" y1="382.9376" x2="924.6252" y2="394.2296" gradientTransform="matrix(1 0 0 -1 0 426)">
		<stop  offset="0.1345" style="stop-color:#373B44"/>
		<stop  offset="1" style="stop-color:#4286F4"/>
	</linearGradient>
	<path class="st40" d="M913.3,36.9c9.6,0,16.5-0.5,19.2-0.5l0,0c-2.1,0.5-5.9,1.6-6.9,1.6c-0.5,0.5-1.6,0.5-1.6,0.5L912.8,39
		C909.6,39,909,37.9,913.3,36.9z"/>
	
		<linearGradient id="SVGID_23_" gradientUnits="userSpaceOnUse" x1="945.0015" y1="384.4002" x2="951.2974" y2="395.305" gradientTransform="matrix(1 0 0 -1 0 426)">
		<stop  offset="0.1345" style="stop-color:#373B44"/>
		<stop  offset="1" style="stop-color:#4286F4"/>
	</linearGradient>
	<path class="st41" d="M956,36.9c-9.6,0-16.5,0-19.2,0l0,0c2.1-0.5,5.9-1.1,6.9-1.6c0.5-0.5,1.6-0.5,1.6-0.5h11.2
		C960.3,34.7,960.3,36.3,956,36.9z"/>
	
		<linearGradient id="SVGID_24_" gradientUnits="userSpaceOnUse" x1="1030.9238" y1="376.4046" x2="1037.3153" y2="387.475" gradientTransform="matrix(1 0 0 -1 0 426)">
		<stop  offset="0.1345" style="stop-color:#373B44"/>
		<stop  offset="1" style="stop-color:#4286F4"/>
	</linearGradient>
	<path class="st42" d="M1044.7,43.8c-12.2-0.5-21.9-1.1-25.1-1.1c-0.5,0-0.5,0-0.5,0c2.7,0.5,8,1.6,9.1,2.1c1.1,0.5,2.7,1.1,2.7,1.1
		l14.4,0.5C1050,46.5,1050.6,44.9,1044.7,43.8z"/>
	
		<linearGradient id="SVGID_25_" gradientUnits="userSpaceOnUse" x1="983.0669" y1="336.976" x2="995.3572" y2="358.2635" gradientTransform="matrix(1 0 0 -1 0 426)">
		<stop  offset="0.1345" style="stop-color:#373B44"/>
		<stop  offset="1" style="stop-color:#4286F4"/>
	</linearGradient>
	<polygon class="st43" points="994.5,95.6 999.9,95.6 999.9,92.4 996.7,82.8 996.1,82.3 995.6,79.1 989.1,67.3 981.7,59.9 979,60.4 
		987,68.4 992.4,78.5 991.8,78 990.7,78 990.7,78.5 988.6,78.5 989.7,80.7 990.7,80.7 995.6,91.9 993.4,91.9 	"/>
	
		<linearGradient id="SVGID_26_" gradientUnits="userSpaceOnUse" x1="1011.9692" y1="361.9946" x2="1022.9365" y2="380.9907" gradientTransform="matrix(1 0 0 -1 0 426)">
		<stop  offset="0.1345" style="stop-color:#373B44"/>
		<stop  offset="1" style="stop-color:#4286F4"/>
	</linearGradient>
	<path class="st44" d="M1023.8,50.8h-5.3c0-1.1,0-8-0.5-8.5c-0.5-0.5-1.1-0.5-1.6-0.5c-0.5,0-1.1,0-1.6,0.5
		c-1.1,0.5-0.5,7.5-0.5,8.5h-5.4V62h1.6c0,1.1,1.1,2.1,2.1,2.1h7.5c1.1,0,2.1-1.1,2.1-2.1h1.6L1023.8,50.8L1023.8,50.8z"/>
	
		<linearGradient id="SVGID_27_" gradientUnits="userSpaceOnUse" x1="987.7483" y1="361.3659" x2="1003.7901" y2="389.1512" gradientTransform="matrix(1 0 0 -1 0 426)">
		<stop  offset="0.1345" style="stop-color:#373B44"/>
		<stop  offset="1" style="stop-color:#4286F4"/>
	</linearGradient>
	<path class="st45" d="M978.5,59.3c0,0,6.4-0.5,8-1.1c2.1-0.5,4.3-1.6,4.3-1.6l14.9-1.6l2.1,1.1v-6.4h5.9c-0.5-0.5-3.2-3.2-4.8-3.2
		c-1.1,0-2.1,0-3.2,0v-3.2c3.2,0,5.9,0,7.5,0c0.5,0,0.5-0.5,0-0.5c-2.1,0-8-1.1-8.5-1.6c-0.5-0.5-2.1-0.5-2.7-0.5v-4.3
		c0-0.5-0.5-1.1-1.6-1.1c-0.5,0-1.1,0.5-1.1,1.1v4.3H987c-4.3,0-4.8,1.6,1.1,2.7c2.7,0,4.8,0,7.5,0V46l-1.1,1.6l-8.5,4.3
		c-1.6,0.5-5.9-0.5-7.5-1.1V59.3z"/>
	
		<linearGradient id="SVGID_28_" gradientUnits="userSpaceOnUse" x1="1011.4462" y1="384.5001" x2="1016.2948" y2="392.8979" gradientTransform="matrix(1 0 0 -1 0 426)">
		<stop  offset="0.1345" style="stop-color:#373B44"/>
		<stop  offset="1" style="stop-color:#4286F4"/>
	</linearGradient>
	<path class="st46" d="M1021.7,36.9c-9.6,0-16.5-0.5-18.7-0.5c-0.5,0-0.5,0-0.5,0c2.1,0.5,5.9,1.6,6.9,1.6c0.5,0.5,1.6,0.5,1.6,0.5
		l11.2,0.5C1026,39,1026,37.9,1021.7,36.9z"/>
	
		<linearGradient id="SVGID_29_" gradientUnits="userSpaceOnUse" x1="984.5266" y1="385.1331" x2="989.7422" y2="394.1669" gradientTransform="matrix(1 0 0 -1 0 426)">
		<stop  offset="0.1345" style="stop-color:#373B44"/>
		<stop  offset="1" style="stop-color:#4286F4"/>
	</linearGradient>
	<path class="st47" d="M979,36.9c9.6,0,16.5,0,19.2,0c0.5,0,0,0,0,0c-2.1-0.5-5.9-1.1-6.9-1.6c-0.5-0.5-1.6-0.5-1.6-0.5h-11.2
		C975.3,34.7,974.7,36.3,979,36.9z"/>
</g>
<g>
	<g>
		
			<linearGradient id="SVGID_30_" gradientUnits="userSpaceOnUse" x1="1062.6312" y1="62.9959" x2="1084.6156" y2="101.0741" gradientTransform="matrix(1 0 0 -1 0 426)">
			<stop  offset="0.1345" style="stop-color:#373B44"/>
			<stop  offset="1" style="stop-color:#4286F4"/>
		</linearGradient>
		<path class="st48" d="M1085.2,325.9h-11.4l-8.4-5.3v44.1l8.4-5.3h11.4c1.1,0,2.2-0.8,2.2-2.2v-29.3c0-1.4-1.1-2.2-2.2-2.2V325.9z"
			/>
	</g>
	<g>
		
			<linearGradient id="SVGID_31_" gradientUnits="userSpaceOnUse" x1="1044.5665" y1="64.2591" x2="1066.9758" y2="103.0732" gradientTransform="matrix(1 0 0 -1 0 426)">
			<stop  offset="0.1345" style="stop-color:#373B44"/>
			<stop  offset="1" style="stop-color:#4286F4"/>
		</linearGradient>
		<path class="st49" d="M1049.5,321.6v41.6c0,1.4,0.8,2.2,2.2,2.2h9.2v-46h-9.2C1050.5,319.4,1049.5,320.5,1049.5,321.6z"/>
	</g>
	<g>
		
			<linearGradient id="SVGID_32_" gradientUnits="userSpaceOnUse" x1="1127.4845" y1="53.4154" x2="1146.1986" y2="85.8292" gradientTransform="matrix(1 0 0 -1 0 426)">
			<stop  offset="0.1345" style="stop-color:#373B44"/>
			<stop  offset="1" style="stop-color:#4286F4"/>
		</linearGradient>
		<rect x="1118.3" y="345.5" class="st50" width="37.1" height="21.8"/>
	</g>
	<g>
		
			<linearGradient id="SVGID_33_" gradientUnits="userSpaceOnUse" x1="1164.1195" y1="62.9227" x2="1187.285" y2="103.0467" gradientTransform="matrix(1 0 0 -1 0 426)">
			<stop  offset="0.1345" style="stop-color:#373B44"/>
			<stop  offset="1" style="stop-color:#4286F4"/>
		</linearGradient>
		<path class="st51" d="M1176.9,317.9h-5.5v49.3h5.5c2.9,0,5.1-1.8,5.9-4.4c4-11.9,4-25.5,0-40.4
			C1182.2,319.7,1179.8,317.9,1176.9,317.9z"/>
	</g>
	<g>
		
			<linearGradient id="SVGID_34_" gradientUnits="userSpaceOnUse" x1="1095.21" y1="65.335" x2="1147.5641" y2="156.0151" gradientTransform="matrix(1 0 0 -1 0 426)">
			<stop  offset="0.1345" style="stop-color:#373B44"/>
			<stop  offset="1" style="stop-color:#4286F4"/>
		</linearGradient>
		<path class="st52" d="M1064.3,305.4h19.8c3.3,0,5.9-2.6,5.9-5.9h5.9v27.6h-4.1c0,0.3,0,0.7,0,0.8v29.5c0,0.4,0,0.7,0,0.8h9.9v2.2
			c0,3.7,3,6.9,6.9,6.9h5.3v-24c0-1.1,1.1-2.2,2.2-2.2h41.5c1.4,0,2.2,1.1,2.2,2.2v24h7.5v-49.6h-7.5l12.8-12.8l1.1,1.1
			c0.4,0.4,0.8,0.7,1.5,0.7c0.4,0,1.1-0.3,1.5-0.7l7.3-7.3c0.8-0.8,0.8-2.2,0-3l-11.7-11.4c-0.8-0.8-2.2-0.8-3,0l-7.3,7.3
			c-0.8,0.8-0.8,2.2,0,3l1.1,0.8l-16.3,16.3l-13.2-16.3c-0.3-0.3-0.8-0.4-1.4-0.4h-42v-0.7c0-3.3-2.6-5.9-5.9-5.9h-19.8
			c-3.3,0-5.9,2.6-5.9,5.9v5.1C1058.3,302.7,1061,305.4,1064.3,305.4z M1101.5,327h-1.4v-27.6h31l12.4,15.4l-3,3h-32.1
			c-3.7,0-6.9,3-6.9,6.9v2.5V327z"/>
	</g>
	<g>
		
			<linearGradient id="SVGID_35_" gradientUnits="userSpaceOnUse" x1="1127.9653" y1="-1.4998" x2="1160.7618" y2="55.3054" gradientTransform="matrix(1 0 0 -1 0 426)">
			<stop  offset="0.1345" style="stop-color:#373B44"/>
			<stop  offset="1" style="stop-color:#4286F4"/>
		</linearGradient>
		<path class="st53" d="M1121.8,421c-0.7,0.8-0.7,2.2,0.3,3c0.8,0.7,2.2,0.7,3-0.3l16.3-17.6v16.1c0,1.4,1.1,2.2,2.2,2.2
			c1.4,0,2.2-0.8,2.2-2.2V406l16.3,17.6c0.8,1.1,2.2,1.1,3,0.3c0.8-0.8,1.1-2.2,0.3-3l-19.6-20.9v-7.3c5.8-1.1,9.9-5.9,9.9-11.9
			c0-0.7,0-1.4-0.3-1.9h4.7c1.4,0,2.2-0.8,2.2-2.2v-4.8h-37.5v4.8c0,1.4,0.8,2.2,2.2,2.2h4.7c-0.3,0.7-0.3,1.4-0.3,1.9
			c0,2.9,1.1,5.5,2.9,7.7c1.8,2.2,4.1,3.7,7,4.1v7.3L1121.8,421z M1135.9,380.7c0-0.7,0-1.4,0.3-1.9h15c0.3,0.7,0.3,1.4,0.3,1.9
			c0,4.1-3.6,7.7-7.7,7.7S1135.9,384.9,1135.9,380.7z"/>
	</g>
</g>
<linearGradient id="SVGID_36_" gradientUnits="userSpaceOnUse" x1="128.9692" y1="276.0261" x2="149.0303" y2="310.7731" gradientTransform="matrix(1 0 0 -1 0 426)">
	<stop  offset="0.1345" style="stop-color:#373B44"/>
	<stop  offset="1" style="stop-color:#4286F4"/>
</linearGradient>
<circle class="st54" cx="139" cy="132.6" r="20.1"/>
<linearGradient id="SVGID_37_" gradientUnits="userSpaceOnUse" x1="67.7989" y1="98.6398" x2="80.7803" y2="121.1242" gradientTransform="matrix(1 0 0 -1 0 426)">
	<stop  offset="0.1345" style="stop-color:#373B44"/>
	<stop  offset="1" style="stop-color:#4286F4"/>
</linearGradient>
<circle class="st55" cx="74.3" cy="316.1" r="13"/>
<linearGradient id="SVGID_38_" gradientUnits="userSpaceOnUse" x1="1120.3265" y1="189.2876" x2="1133.3079" y2="211.772" gradientTransform="matrix(1 0 0 -1 0 426)">
	<stop  offset="0.1345" style="stop-color:#373B44"/>
	<stop  offset="1" style="stop-color:#4286F4"/>
</linearGradient>
<circle class="st56" cx="1126.8" cy="225.5" r="13"/>
<linearGradient id="SVGID_39_" gradientUnits="userSpaceOnUse" x1="783.6694" y1="356.0265" x2="803.7306" y2="390.7734" gradientTransform="matrix(1 0 0 -1 0 426)">
	<stop  offset="0.1345" style="stop-color:#373B44"/>
	<stop  offset="1" style="stop-color:#4286F4"/>
</linearGradient>
<circle class="st57" cx="793.7" cy="52.6" r="20.1"/>
</svg>
