<?xml version="1.0" encoding="utf-8"?>
<!-- Generator: Adobe Illustrator 22.0.0, SVG Export Plug-In . SVG Version: 6.00 Build 0)  -->
<svg version="1.1" id="Layer_1" xmlns="http://www.w3.org/2000/svg" xmlns:xlink="http://www.w3.org/1999/xlink" x="0px" y="0px"
	 viewBox="0 0 545 340.2" style="enable-background:new 0 0 545 340.2;" xml:space="preserve">
<style type="text/css">
	.st0{display:none;}
	.st1{fill:#35404C;}
	.st2{fill:#343F3E;}
	.st3{fill:#333D3C;}
	.st4{display:inline;fill:#343F3E;}
	.st5{display:inline;fill:#3B4342;}
	.st6{fill:#323B3A;}
	.st7{display:inline;fill:#303A39;}
	.st8{display:inline;fill:#323B3A;}
	.st9{display:inline;fill:#384040;}
	.st10{display:inline;fill:#3D4745;}
	.st11{display:inline;fill:#3A4241;}
	.st12{fill:#3B4342;}
	.st13{fill:#3A4444;}
	.st14{display:inline;fill:#3A4444;}
	.st15{display:inline;fill:#293130;}
	.st16{display:inline;fill:#3F4746;}
	.st17{display:inline;fill:#2B3635;}
	.st18{display:none;opacity:0.3;fill:url(#SVGID_1_);}
	.st19{display:none;fill:url(#SVGID_2_);}
	.st20{display:none;opacity:0.3;fill:url(#SVGID_3_);}
	.st21{fill:url(#SVGID_4_);}
</style>
<g class="st0">
	<g>
		<path class="st3" d="M481.4,255.2c0,11,0,19.9,0,29.2c-2.2,0-4.2,0-6.7,0c0-8.7-0.2-17.1,0.3-25.4
			C475,257.9,478.4,256.9,481.4,255.2z"/>
		<path class="st4" d="M74.3,307.1c-1.8,1.6-3.2,2.9-4.8,4.5c-1.7-1.6-3.2-3-4.9-4.6c1.5-1.7,2.8-3.1,4.4-4.9
			C70.8,303.8,72.4,305.3,74.3,307.1z"/>
		<path class="st5" d="M108.4,288.7c0,2.2,0,4.2,0,6.4c-2.1,0-4.2,0-6.2,0C101.1,288.4,101.4,288,108.4,288.7z"/>
		<path class="st6" d="M474.9,299.2c0-2,0-3.8,0-5.9c2.1,0,4.1,0,6.4,0c0,1.8,0,3.7,0,5.9C479.2,299.2,477.2,299.2,474.9,299.2z"/>
		<path class="st7" d="M46.6,59.2c2.2,0,3.9,0,5.8,0c0,2,0,3.8,0,6.1c-1.7,0.2-3.6,0.4-5.8,0.6C46.6,63.5,46.6,61.4,46.6,59.2z"/>
		<path class="st5" d="M99.4,301.9c1.5,1.6,2.8,3,4.5,4.8c-1.8,1.7-3.5,3.2-5.4,5c-1.6-2-2.7-3.5-4.1-5.2
			C96.1,305,97.7,303.6,99.4,301.9z"/>
		<path class="st8" d="M87.4,268.1c0,2,0,3.8,0,5.9c-2.1,0-4.1,0-6.4,0c0-1.9,0-3.8,0-5.9C83.1,268.1,85.2,268.1,87.4,268.1z"/>
		<path class="st9" d="M94.1,277.2c1.9-1.8,3.3-3.1,4.9-4.6c1.7,1.5,3.1,2.8,5,4.4c-1.4,1.6-2.7,3.1-4.3,4.9
			C97.7,280.3,96.1,278.9,94.1,277.2z"/>
		<path class="st10" d="M81,316c0-2.3,0-4,0-6.2c2.1,0,4,0,6.4,0c0.1,2,0.2,3.9,0.3,6.2C85.3,316,83.3,316,81,316z"/>
		<path class="st9" d="M509.4,113.7c1.7,1.9,3,3.4,5,5.5c-1.8,1.3-3.4,2.4-5.5,3.9c-0.9-0.9-2.3-2.2-4.2-4
			C506.1,117.5,507.4,116,509.4,113.7z"/>
		<path class="st5" d="M515.5,107.9c1.9-1.6,3.3-2.9,5.7-4.9c1,1.5,2.1,3.3,3.5,5.6c-1.2,0.8-2.7,2-4.8,3.5
			C518.9,111,517.4,109.6,515.5,107.9z"/>
		<path class="st11" d="M65.1,276.9c1-1.1,2.5-2.7,4.4-4.7c1.8,2.1,3.2,3.7,4.6,5.4c-1.8,1.3-3.4,2.5-5.6,4.1
			C67.8,280.7,66.6,279,65.1,276.9z"/>
		<path class="st4" d="M55.4,68.3c2.3,0,4.2,0,6.3,0c0,2.1,0,4,0,6.3c-1.8,0.1-3.6,0.2-6,0.4C55.6,72.7,55.5,70.6,55.4,68.3z"/>
		<path class="st12" d="M475,308.3c2.2,0,4,0,6.2,0c0,2.1,0,4.1,0,6.5c-2,0-3.9,0-6.2,0C475,312.9,475,310.9,475,308.3z"/>
		<path class="st10" d="M531.6,113.9c1.6,1.7,2.9,3.1,4.5,4.8c-1.5,1.6-2.8,3.1-4.5,4.8c-1.6-1.6-3-2.9-4.8-4.6
			C528.5,117.1,530,115.6,531.6,113.9z"/>
		<path class="st14" d="M526.4,96.8c2.2-1.9,3.5-3.1,4.8-4.3c5.8,4.1,5.8,4.1-0.1,9C529.7,100.1,528.3,98.6,526.4,96.8z"/>
		<path class="st15" d="M60.3,289c2.1,0,3.9,0,5.9,0c0,2,0,3.8,0,6c-1.9,0-3.8,0-5.9,0C60.3,293.1,60.3,291.3,60.3,289z"/>
		<path class="st16" d="M514.3,96.6c-1.8,1.9-3.1,3.3-4.9,5.2c-1.7-2-3.1-3.5-4.8-5.5c1.5-1.3,3-2.5,5-4.1
			C510.9,93.4,512.4,94.8,514.3,96.6z"/>
		<path class="st17" d="M61.4,50.2c0.1,2.2,0.2,4,0.4,6c-2.1,0-4,0-6.2,0c0-2,0-3.9,0-6C57.6,50.2,59.3,50.2,61.4,50.2z"/>
	</g>
</g>
<linearGradient id="SVGID_1_" gradientUnits="userSpaceOnUse" x1="15.6395" y1="38.209" x2="34.7225" y2="5.1563">
	<stop  offset="0.1345" style="stop-color:#373B44"/>
	<stop  offset="1" style="stop-color:#4286F4"/>
</linearGradient>
<circle class="st18" cx="25.2" cy="21.7" r="19.1"/>
<linearGradient id="SVGID_2_" gradientUnits="userSpaceOnUse" x1="448.8563" y1="137.32" x2="474.55" y2="92.8172">
	<stop  offset="0.1345" style="stop-color:#373B44"/>
	<stop  offset="1" style="stop-color:#4286F4"/>
</linearGradient>
<circle style="display:none;opacity:0.3;fill:url(#SVGID_2_);" cx="461.7" cy="115.1" r="25.7"/>
<linearGradient id="SVGID_3_" gradientUnits="userSpaceOnUse" x1="267.5567" y1="250.4987" x2="267.5567" y2="57.9358">
	<stop  offset="0.3528" style="stop-color:#373B44"/>
	<stop  offset="1" style="stop-color:#4286F4"/>
</linearGradient>
<path style="fill:url(#SVGID_3_);" d="M140.9,155.4c0.3,0,0.3,0,0.6,0l12.5-2.3v69.5c0,1.5,0.9,2.6,2.3,2.9l110.5,25
	c0.3,0,0.3,0,0.6,0l0,0l0,0l0,0l0,0c0.3,0,0.3,0,0.6,0l110.5-25c1.5-0.3,2.3-1.5,2.3-2.9v-69.5l12.5,2.3c0.3,0,0.3,0,0.6,0
	c0.9,0,1.7-0.3,2.3-1.2c0.6-0.9,0.9-2,0.6-2.9l-16-42.2c-0.3-0.9-0.9-1.5-1.5-1.7L268.9,57.9l0,0l0,0c0,0,0,0-0.3,0
	c-0.3,0-0.3,0-0.6,0h-0.3l0,0l0,0h-0.3c-0.3,0-0.3,0-0.6,0c0,0,0,0-0.3,0l0,0l0,0L156,107.4c-0.6,0.3-1.2,0.9-1.5,1.7l-16.3,42.5
	c-0.3,0.9-0.3,2,0.6,2.9C139.2,155.1,140,155.4,140.9,155.4z M159.8,220.5v-68.6l83.2-16c1.2-0.3,1.7-0.9,2.3-2L264.5,78v166.1
	L159.8,220.5z M375.1,220.5l-104.7,23.9V78l19.2,56.1c0.3,0.9,1.2,1.7,2.3,2l83.2,15.7V220.5z M375.6,112l13.7,36.7l-94.8-18
	l-22.1-64.9L375.6,112z M159.2,112l103.3-46.2l-22.1,64.9l-94.8,18L159.2,112z"/>
<path class="st0" d="M345.4,217.9c0.3,0,0.3,0,0.6,0l16.6-3.5c1.5-0.3,2.6-1.7,2.3-3.5c-0.3-1.7-2-2.6-3.5-2.3l-16.6,3.5
	c-1.5,0.3-2.6,1.7-2.3,3.5C343.1,216.8,344.2,217.9,345.4,217.9z"/>
<path class="st0" d="M345.4,206c0.3,0,0.3,0,0.6,0l16.6-3.5c1.5-0.3,2.6-1.7,2.3-3.5c-0.3-1.7-2-2.6-3.5-2.3l-16.6,3.5
	c-1.5,0.3-2.6,1.7-2.3,3.5C343.1,205.1,344.2,206,345.4,206z"/>
</svg>
