<?xml version="1.0" encoding="utf-8"?>
<!-- Generator: Adobe Illustrator 22.0.0, SVG Export Plug-In . SVG Version: 6.00 Build 0)  -->
<svg version="1.1" id="Layer_1" xmlns="http://www.w3.org/2000/svg" xmlns:xlink="http://www.w3.org/1999/xlink" x="0px" y="0px"
	 viewBox="0 0 500 600" style="enable-background:new 0 0 500 600;" xml:space="preserve">
<style type="text/css">
	.st0{display:none;}
	.st1{display:inline;}
	.st2{fill:#35404C;}
	.st3{fill:#343F3E;}
	.st4{fill:#333D3C;}
	.st5{fill:#3B4342;}
	.st6{fill:#323B3A;}
	.st7{fill:#303A39;}
	.st8{fill:#384040;}
	.st9{fill:#3D4745;}
	.st10{fill:#3A4241;}
	.st11{fill:#3A4444;}
	.st12{fill:#293130;}
	.st13{fill:#3F4746;}
	.st14{fill:#2B3635;}
	.st15{display:none;opacity:0.3;fill:url(#SVGID_1_);}
	.st16{display:none;opacity:0.3;fill:url(#SVGID_2_);}
	.st17{display:none;opacity:0.3;fill:url(#SVGID_3_);}
	.st18{display:none;opacity:0.3;fill:url(#SVGID_4_);}
	.st19{display:none;fill:url(#SVGID_5_);}
	.st20{display:none;fill:url(#SVGID_6_);}
	.st21{fill:url(#SVGID_7_);}
</style>
<g class="st0">
	<g class="st1">
		<path class="st2" d="M434.4,125.1c-3.3,0-5.9,0.3-8.3-0.1c-1.7-0.3-3.1-1.7-4.7-2.7c1.6-1.1,3-2.8,4.8-3.2
			c2.4-0.6,4.9-0.1,8.1-0.1c0-3.2-0.3-6.1,0.1-9c0.2-1.6,1.8-3,2.7-4.4c1,1.4,2.6,2.7,2.9,4.2c0.6,2.7,0.4,5.6,0.5,9.1
			c2.9,0,5.9-0.4,8.7,0.1c1.6,0.3,3,1.9,4.5,3c-1.5,1-2.9,2.1-4.5,3c-0.7,0.3-1.6,0.1-2.5,0.1c-6.5,0-6.5,0-6.5,6.5
			c0,1,0.1,2.1-0.3,2.9c-0.7,1.3-1.8,2.4-2.8,3.6c-1-1.3-2.6-2.5-2.8-4C434.1,131.3,434.4,128.5,434.4,125.1z"/>
		<path class="st3" d="M105,118.4c0,2.3,0,4.2,0,6.3c-9.2,0-18.3,0-27.7,0c0-2,0-4.1,0-6.3C86.6,118.4,95.5,118.4,105,118.4z"/>
		<path class="st4" d="M460.4,462.1c0,11,0,19.9,0,29.2c-2.2,0-4.2,0-6.7,0c0-8.7-0.2-17.1,0.3-25.4
			C454,464.7,457.4,463.7,460.4,462.1z"/>
		<path class="st3" d="M53.3,513.9c-1.8,1.6-3.2,2.9-4.8,4.5c-1.7-1.6-3.2-3-4.9-4.6c1.5-1.7,2.8-3.1,4.4-4.9
			C49.8,510.6,51.4,512.1,53.3,513.9z"/>
		<path class="st5" d="M87.4,495.5c0,2.2,0,4.2,0,6.4c-2.1,0-4.2,0-6.2,0C80.1,495.2,80.4,494.9,87.4,495.5z"/>
		<path class="st6" d="M453.9,506c0-2,0-3.8,0-5.9c2.1,0,4.1,0,6.4,0c0,1.8,0,3.7,0,5.9C458.2,506,456.2,506,453.9,506z"/>
		<path class="st7" d="M25.6,278c2.2,0,3.9,0,5.8,0c0,2,0,3.8,0,6.1c-1.7,0.2-3.6,0.4-5.8,0.6C25.6,282.3,25.6,280.3,25.6,278z"/>
		<path class="st5" d="M78.4,508.8c1.5,1.6,2.8,3,4.5,4.8c-1.8,1.7-3.5,3.2-5.4,5c-1.6-2-2.7-3.5-4.1-5.2
			C75.1,511.9,76.7,510.4,78.4,508.8z"/>
		<path class="st6" d="M66.4,475c0,2,0,3.8,0,5.9c-2.1,0-4.1,0-6.4,0c0-1.9,0-3.8,0-5.9C62.1,475,64.2,475,66.4,475z"/>
		<path class="st8" d="M73,484c1.9-1.8,3.3-3.1,4.9-4.6c1.7,1.5,3.1,2.8,5,4.4c-1.4,1.6-2.7,3.1-4.3,4.9
			C76.7,487.1,75.1,485.8,73,484z"/>
		<path class="st9" d="M60,522.8c0-2.3,0-4,0-6.2c2.1,0,4,0,6.4,0c0.1,2,0.2,3.9,0.3,6.2C64.3,522.8,62.3,522.8,60,522.8z"/>
		<path class="st4" d="M62.5,118.4c2.3,0,4,0,6,0c0,2.2,0,4.2,0,6.3c-2,0-3.9,0-6,0C62.5,122.7,62.5,120.8,62.5,118.4z"/>
		<path class="st8" d="M488.4,332.5c1.7,1.9,3,3.4,5,5.5c-1.8,1.3-3.4,2.4-5.5,3.9c-0.9-0.9-2.3-2.2-4.2-4
			C485.1,336.3,486.4,334.8,488.4,332.5z"/>
		<path class="st5" d="M494.5,326.7c1.9-1.6,3.3-2.9,5.7-4.9c1,1.5,2.1,3.3,3.5,5.6c-1.2,0.8-2.7,2-4.8,3.5
			C497.9,329.9,496.4,328.5,494.5,326.7z"/>
		<path class="st10" d="M44.1,483.7c1-1.1,2.5-2.7,4.4-4.7c1.8,2.1,3.2,3.7,4.6,5.4c-1.8,1.3-3.4,2.5-5.6,4.1
			C46.8,487.6,45.6,485.8,44.1,483.7z"/>
		<path class="st3" d="M34.4,287.2c2.3,0,4.2,0,6.3,0c0,2.1,0,4,0,6.3c-1.8,0.1-3.6,0.2-6,0.4C34.6,291.6,34.5,289.5,34.4,287.2z"/>
		<path class="st5" d="M454,515.2c2.2,0,4,0,6.2,0c0,2.1,0,4.1,0,6.5c-2,0-3.9,0-6.2,0C454,519.7,454,517.7,454,515.2z"/>
		<path class="st11" d="M46.8,124.7c0-2.2,0-4.1,0-6.2c2.2,0,4.1,0,6.3,0c0,2.1,0,4,0,6.2C51.3,124.7,49.3,124.7,46.8,124.7z"/>
		<path class="st12" d="M39.3,495.9c2.1,0,3.9,0,5.9,0c0,2,0,3.8,0,6c-1.9,0-3.8,0-5.9,0C39.3,499.9,39.3,498.2,39.3,495.9z"/>
		<path class="st13" d="M493.2,315.4c-1.8,1.9-3.1,3.3-4.9,5.2c-1.7-2-3.1-3.5-4.8-5.5c1.5-1.3,3-2.5,5-4.1
			C489.9,312.3,491.4,313.6,493.2,315.4z"/>
		<path class="st14" d="M40.4,269.1c0.1,2.2,0.2,4,0.4,6c-2.1,0-4,0-6.2,0c0-2,0-3.9,0-6C36.6,269.1,38.3,269.1,40.4,269.1z"/>
	</g>
</g>
<linearGradient id="SVGID_1_" gradientUnits="userSpaceOnUse" x1="128.0084" y1="535.5417" x2="161.1143" y2="478.2006">
	<stop  offset="0.1345" style="stop-color:#373B44"/>
	<stop  offset="1" style="stop-color:#4286F4"/>
</linearGradient>
<circle class="st15" cx="144.6" cy="506.9" r="33.1"/>
<linearGradient id="SVGID_2_" gradientUnits="userSpaceOnUse" x1="-5.3621" y1="253.042" x2="13.7209" y2="219.9893">
	<stop  offset="0.1345" style="stop-color:#373B44"/>
	<stop  offset="1" style="stop-color:#4286F4"/>
</linearGradient>
<circle class="st16" cx="4.2" cy="236.5" r="19.1"/>
<linearGradient id="SVGID_3_" gradientUnits="userSpaceOnUse" x1="184.8471" y1="343.3489" x2="308.2076" y2="129.6823">
	<stop  offset="0.1345" style="stop-color:#373B44"/>
	<stop  offset="1" style="stop-color:#4286F4"/>
</linearGradient>
<circle class="st17" cx="246.5" cy="236.5" r="123.3"/>
<linearGradient id="SVGID_4_" gradientUnits="userSpaceOnUse" x1="427.8548" y1="356.153" x2="453.5485" y2="311.6502">
	<stop  offset="0.1345" style="stop-color:#373B44"/>
	<stop  offset="1" style="stop-color:#4286F4"/>
</linearGradient>
<circle class="st18" cx="440.7" cy="333.9" r="25.7"/>
<linearGradient id="SVGID_5_" gradientUnits="userSpaceOnUse" x1="287.494" y1="330.7324" x2="218.8069" y2="262.0453">
	<stop  offset="0.1345" style="stop-color:#373B44"/>
	<stop  offset="1" style="stop-color:#4286F4"/>
</linearGradient>
<path class="st19" d="M299.8,279.4c0-6.3-5.1-11.4-11.4-11.4l0,0l-70.4-0.3c-6.3,0-11.4,5.1-11.4,11.4v34.3
	c0,6.3,5.1,11.4,11.4,11.4l70.4,0.3c6.3,0,11.4-5.1,11.4-11.4C299.8,313.7,299.8,279.4,299.8,279.4z M220.7,274.3
	c12,0,53.6,0.3,65.3,0.3h1.2l-33.1,22.6l-34.3-22.9H220.7z M288.4,318.5l-70.4-0.3c-2.7,0-5.1-2.1-5.1-5.1c0-15.6,0.3-30.4,0.3-34.6
	v-0.6l0.6,0.3l38.2,25.3c1.2,0.6,2.7,0.6,3.6,0l37.3-25.3v0.6c0.3,5.4,0.3,22,0.3,34.6C293.2,316.4,291.1,318.5,288.4,318.5z"/>
<linearGradient id="SVGID_6_" gradientUnits="userSpaceOnUse" x1="175.9323" y1="432.5823" x2="330.1003" y2="165.5555">
	<stop  offset="0.1345" style="stop-color:#373B44"/>
	<stop  offset="1" style="stop-color:#4286F4"/>
</linearGradient>
<path class="st20" d="M313,158.4H193c-9.3,0-17.5,7.8-17.5,17.5v246.5c0,9.3,7.8,17.5,17.5,17.5H313c9.3,0,17.5-7.8,17.5-17.5V175.6
	C330.5,166.2,322.7,158.4,313,158.4z M321.2,422.3c0,4.5-3.3,7.8-7.8,7.8H193c-4.5,0-7.8-3.3-7.8-7.8v-26.8h136V422.3z M321.2,385.9
	h-136V193h136V385.9z M321.2,183.7h-136v-8.1c0-4.5,3.3-7.8,7.8-7.8h43.3c0.3,1.8,1.8,3,3.6,3h26.5c1.8,0,3.3-1.5,3.6-3h43
	c4.5,0,7.8,3.3,7.8,7.8v8.1H321.2z"/>
<circle class="st0" cx="253.2" cy="412.7" r="8.1"/>
<g transform="translate(0,-952.36218)">
	<linearGradient id="SVGID_7_" gradientUnits="userSpaceOnUse" x1="41.8601" y1="1488.9585" x2="458.0931" y2="1072.7255">
		<stop  offset="0" style="stop-color:#373B44"/>
		<stop  offset="1" style="stop-color:#4286F4"/>
	</linearGradient>
	<path class="st21" d="M199.6,997.6c-8.8,0.9-15.4,8.3-15.4,17.2v11.4h-20c-9.5,0-17.2,7.7-17.2,17.2v5.7H72.6c-0.6,0-1.2,0-1.8,0
		c-8.8,0.9-15.4,8.3-15.4,17.2v429.2c0,9.5,7.7,17.2,17.2,17.2h354.8c9.5,0,17.2-7.7,17.2-17.2v-429.2c0-9.5-7.7-17.2-17.2-17.2H353
		v-5.7c0-9.5-7.7-17.2-17.2-17.2h-20v-11.4c0-9.5-7.7-17.2-17.2-17.2h-97.3C200.8,997.6,200.2,997.6,199.6,997.6z M218.5,1032h62.9
		v11.4c0,9.5,7.7,17.2,17.2,17.2h20v17.2H181.3v-17.2h20c9.5,0,17.2-7.7,17.2-17.2V1032z M89.8,1083.5H147v11.4
		c0,9.5,7.7,17.2,17.2,17.2h171.7c9.5,0,17.2-7.7,17.2-17.2v-11.4h57.2v394.8H89.8V1083.5z M191.3,1151.9c-4.4,0.4-8.5,2.5-11.4,5.9
		l-33.6,37.9l-4.3-4.3c-6.2-7.1-17.1-7.9-24.2-1.6c-7.1,6.2-7.9,17.1-1.6,24.2c0.5,0.6,1,1.1,1.5,1.6l17.2,17.2
		c6.7,6.7,17.6,6.8,24.3,0.1c0.3-0.3,0.5-0.5,0.8-0.8l45.8-51.5c6.4-7,5.8-17.9-1.2-24.2C200.9,1153.1,196.1,1151.5,191.3,1151.9z
		 M236.8,1186.5c-9.5,0.5-16.8,8.6-16.3,18.1s8.6,16.8,18.1,16.3h131.6c9.5,0.1,17.3-7.4,17.4-16.9c0.1-9.5-7.4-17.3-16.9-17.4
		c-0.2,0-0.3,0-0.5,0H238.6C238,1186.4,237.4,1186.4,236.8,1186.5z M191.3,1249.2c-4.4,0.4-8.5,2.5-11.4,5.9l-33.6,37.9l-4.3-4.3
		c-6.2-7.1-17.1-7.9-24.2-1.6c-7.1,6.2-7.9,17.1-1.6,24.2c0.5,0.6,1,1.1,1.5,1.6l17.2,17.2c6.7,6.7,17.6,6.8,24.3,0.1
		c0.3-0.3,0.5-0.5,0.8-0.8l45.8-51.5c6.4-7,5.8-17.9-1.2-24.2C200.9,1250.4,196.1,1248.8,191.3,1249.2z M236.8,1283.7
		c-9.5,0.5-16.8,8.6-16.3,18.1c0.5,9.5,8.6,16.8,18.1,16.3h131.6c9.5,0.1,17.3-7.4,17.4-16.9c0.1-9.5-7.4-17.3-16.9-17.4
		c-0.2,0-0.3,0-0.5,0H238.6C238,1283.7,237.4,1283.7,236.8,1283.7z M191.3,1346.5c-4.4,0.4-8.5,2.5-11.4,5.9l-33.6,37.9l-4.3-4.3
		c-6.2-7.1-17.1-7.9-24.2-1.6c-7.1,6.2-7.9,17.1-1.6,24.2c0.5,0.6,1,1.1,1.5,1.6l17.2,17.2c6.7,6.7,17.6,6.8,24.3,0.1
		c0.3-0.3,0.5-0.5,0.8-0.8l45.8-51.5c6.4-7,5.8-17.9-1.2-24.2C200.9,1347.6,196.1,1346.1,191.3,1346.5z M236.8,1381
		c-9.5,0.5-16.8,8.6-16.3,18.1c0.5,9.5,8.6,16.8,18.1,16.3h131.6c9.5,0.1,17.3-7.4,17.4-16.9c0.1-9.5-7.4-17.3-16.9-17.4
		c-0.2,0-0.3,0-0.5,0H238.6C238,1381,237.4,1381,236.8,1381z"/>
</g>
</svg>
