<?xml version="1.0" encoding="utf-8"?>
<!-- Generator: Adobe Illustrator 22.0.0, SVG Export Plug-In . SVG Version: 6.00 Build 0)  -->
<svg version="1.1" id="Layer_1" xmlns="http://www.w3.org/2000/svg" xmlns:xlink="http://www.w3.org/1999/xlink" x="0px" y="0px"
	 viewBox="0 0 569.5 476" style="enable-background:new 0 0 569.5 476;" xml:space="preserve">
<style type="text/css">
	.st0{display:none;fill:#35404C;}
	.st1{display:none;fill:#343F3E;}
	.st2{display:none;fill:#333D3C;}
	.st3{fill:#343F3E;}
	.st4{fill:#3B4342;}
	.st5{display:none;fill:#323B3A;}
	.st6{display:none;fill:#303A39;}
	.st7{fill:#323B3A;}
	.st8{fill:#384040;}
	.st9{fill:#3D4745;}
	.st10{fill:#3A4241;}
	.st11{display:none;fill:#3B4342;}
	.st12{display:none;fill:#3A4444;}
	.st13{fill:#3A4444;}
	.st14{fill:#293130;}
	.st15{fill:#3F4746;}
	.st16{display:none;fill:#2B3635;}
	.st17{opacity:0.3;fill:url(#SVGID_1_);}
	.st18{display:none;fill:url(#SVGID_2_);}
	.st19{display:none;fill:url(#SVGID_3_);}
	.st20{opacity:0.3;fill:url(#SVGID_4_);}
	.st21{fill:url(#SVGID_5_);}
	.st22{fill:url(#SVGID_6_);}
	.st23{fill:url(#SVGID_7_);}
	.st24{fill:url(#SVGID_8_);}
	.st25{fill:url(#SVGID_9_);}
	.st26{fill:url(#SVGID_10_);}
	.st27{fill:url(#SVGID_11_);}
	.st28{fill:url(#SVGID_12_);}
	.st29{fill:url(#SVGID_13_);}
	.st30{fill:url(#SVGID_14_);}
	.st31{fill:url(#SVGID_15_);}
	.st32{fill:url(#SVGID_16_);}
	.st33{fill:url(#SVGID_17_);}
	.st34{fill:url(#SVGID_18_);}
	.st35{fill:url(#SVGID_19_);}
	.st36{fill:url(#SVGID_20_);}
	.st37{fill:url(#SVGID_21_);}
	.st38{fill:url(#SVGID_22_);}
	.st39{fill:url(#SVGID_23_);}
	.st40{fill:url(#SVGID_24_);}
	.st41{fill:url(#SVGID_25_);}
	.st42{fill:url(#SVGID_26_);}
	.st43{fill:url(#SVGID_27_);}
	.st44{fill:url(#SVGID_28_);}
	.st45{fill:url(#SVGID_29_);}
	.st46{fill:url(#SVGID_30_);}
	.st47{fill:url(#SVGID_31_);}
	.st48{fill:url(#SVGID_32_);}
	.st49{fill:url(#SVGID_33_);}
	.st50{fill:url(#SVGID_34_);}
	.st51{fill:url(#SVGID_35_);}
	.st52{fill:url(#SVGID_36_);}
	.st53{fill:url(#SVGID_37_);}
</style>
<g>
	<g>
		<path class="st0" d="M750.9-352.8c-3.3,0-5.9,0.3-8.3-0.1c-1.7-0.3-3.1-1.7-4.7-2.7c1.6-1.1,3-2.8,4.8-3.2
			c2.4-0.6,4.9-0.1,8.1-0.1c0-3.2-0.3-6.1,0.1-9c0.2-1.6,1.8-3,2.7-4.4c1,1.4,2.6,2.7,2.9,4.2c0.6,2.7,0.4,5.6,0.5,9.1
			c2.9,0,5.9-0.4,8.7,0.1c1.6,0.3,3,1.9,4.5,3c-1.5,1-2.9,2.1-4.5,3c-0.7,0.3-1.6,0.1-2.5,0.1c-6.5,0-6.5,0-6.5,6.5
			c0,1,0.1,2.1-0.3,2.9c-0.7,1.3-1.8,2.4-2.8,3.6c-1-1.3-2.6-2.5-2.8-4C750.5-346.5,750.9-349.4,750.9-352.8z"/>
		<path class="st1" d="M786.7-323.2c0,2.3,0,4.2,0,6.3c-9.2,0-18.3,0-27.7,0c0-2,0-4.1,0-6.3C768.3-323.2,777.1-323.2,786.7-323.2z"
			/>
		<path class="st2" d="M776.9-15.8c0,11,0,19.9,0,29.2c-2.2,0-4.2,0-6.7,0c0-8.7-0.2-17.1,0.3-25.4
			C770.4-13.1,773.9-14.1,776.9-15.8z"/>
		<path class="st3" d="M27.4,62.1c-1.8,1.6-3.2,2.9-4.8,4.5c-1.7-1.6-3.2-3-4.9-4.6c1.5-1.7,2.8-3.1,4.4-4.9
			C23.9,58.8,25.5,60.4,27.4,62.1z"/>
		<path class="st4" d="M61.5,43.8c0,2.2,0,4.2,0,6.4c-2.1,0-4.2,0-6.2,0C54.2,43.5,54.5,43.1,61.5,43.8z"/>
		<path class="st5" d="M770.3,28.2c0-2,0-3.8,0-5.9c2.1,0,4.1,0,6.4,0c0,1.8,0,3.7,0,5.9C774.7,28.2,772.6,28.2,770.3,28.2z"/>
		<path class="st6" d="M337.6-307.5c2.2,0,3.9,0,5.8,0c0,2,0,3.8,0,6.1c-1.7,0.2-3.6,0.4-5.8,0.6
			C337.6-303.2,337.6-305.3,337.6-307.5z"/>
		<path class="st4" d="M52.5,57c1.5,1.6,2.8,3,4.5,4.8c-1.8,1.7-3.5,3.2-5.4,5c-1.6-2-2.7-3.5-4.1-5.2C49.2,60.1,50.8,58.7,52.5,57z
			"/>
		<path class="st7" d="M40.5,23.2c0,2,0,3.8,0,5.9c-2.1,0-4.1,0-6.4,0c0-1.9,0-3.8,0-5.9C36.2,23.2,38.3,23.2,40.5,23.2z"/>
		<path class="st8" d="M47.1,32.2c1.9-1.8,3.3-3.1,4.9-4.6c1.7,1.5,3.1,2.8,5,4.4c-1.4,1.6-2.7,3.1-4.3,4.9
			C50.8,35.4,49.2,34,47.1,32.2z"/>
		<path class="st9" d="M34.1,71.1c0-2.3,0-4,0-6.2c2.1,0,4,0,6.4,0c0.1,2,0.2,3.9,0.3,6.2C38.4,71.1,36.4,71.1,34.1,71.1z"/>
		<path class="st2" d="M744.2-323.2c2.3,0,4,0,6,0c0,2.2,0,4.2,0,6.3c-2,0-3.9,0-6,0C744.2-318.9,744.2-320.8,744.2-323.2z"/>
		<path class="st8" d="M1062.5-197.4c1.7,1.9,3,3.4,5,5.5c-1.8,1.3-3.4,2.4-5.5,3.9c-0.9-0.9-2.3-2.2-4.2-4
			C1059.2-193.6,1060.5-195.1,1062.5-197.4z"/>
		<path class="st4" d="M1068.6-203.2c1.9-1.6,3.3-2.9,5.7-4.9c1,1.5,2.1,3.3,3.5,5.6c-1.2,0.8-2.7,2-4.8,3.5
			C1072-200.1,1070.5-201.5,1068.6-203.2z"/>
		<path class="st10" d="M18.2,32c1-1.1,2.5-2.7,4.4-4.7c1.8,2.1,3.2,3.7,4.6,5.4c-1.8,1.3-3.4,2.5-5.6,4.1
			C20.9,35.8,19.6,34.1,18.2,32z"/>
		<path class="st1" d="M346.3-298.4c2.3,0,4.2,0,6.3,0c0,2.1,0,4,0,6.3c-1.8,0.1-3.6,0.2-6,0.4C346.6-294,346.5-296.1,346.3-298.4z"
			/>
		<path class="st11" d="M770.5,37.3c2.2,0,4,0,6.2,0c0,2.1,0,4.1,0,6.5c-2,0-3.9,0-6.2,0C770.5,41.9,770.5,39.9,770.5,37.3z"/>
		<path class="st12" d="M728.5-316.9c0-2.2,0-4.1,0-6.2c2.2,0,4.1,0,6.3,0c0,2.1,0,4,0,6.2C733-316.9,730.9-316.9,728.5-316.9z"/>
		<path class="st9" d="M1084.7-197.2c1.6,1.7,2.9,3.1,4.5,4.8c-1.5,1.6-2.8,3.1-4.5,4.8c-1.6-1.6-3-2.9-4.8-4.6
			C1081.6-193.9,1083.1-195.5,1084.7-197.2z"/>
		<path class="st13" d="M1079.5-214.3c2.2-1.9,3.5-3.1,4.8-4.3c5.8,4.1,5.8,4.1-0.1,9C1082.8-211,1081.4-212.5,1079.5-214.3z"/>
		<path class="st14" d="M13.4,44.1c2.1,0,3.9,0,5.9,0c0,2,0,3.8,0,6c-1.9,0-3.8,0-5.9,0C13.4,48.2,13.4,46.4,13.4,44.1z"/>
		<path class="st15" d="M1067.4-214.5c-1.8,1.9-3.1,3.3-4.9,5.2c-1.7-2-3.1-3.5-4.8-5.5c1.5-1.3,3-2.5,5-4.1
			C1064-217.6,1065.5-216.3,1067.4-214.5z"/>
		<path class="st16" d="M352.4-316.5c0.1,2.2,0.2,4,0.4,6c-2.1,0-4,0-6.2,0c0-2,0-3.9,0-6C348.6-316.5,350.3-316.5,352.4-316.5z"/>
	</g>
</g>
<linearGradient id="SVGID_1_" gradientUnits="userSpaceOnUse" x1="52.5508" y1="214.858" x2="66.6274" y2="190.4767">
	<stop  offset="0.1345" style="stop-color:#373B44"/>
	<stop  offset="1" style="stop-color:#4286F4"/>
</linearGradient>
<circle class="st17" cx="59.6" cy="202.7" r="14.1"/>
<linearGradient id="SVGID_2_" gradientUnits="userSpaceOnUse" x1="-78.3185" y1="49.8185" x2="-59.2355" y2="16.7658">
	<stop  offset="0.1345" style="stop-color:#373B44"/>
	<stop  offset="1" style="stop-color:#4286F4"/>
</linearGradient>
<circle class="st18" cx="-68.8" cy="33.3" r="19.1"/>
<linearGradient id="SVGID_3_" gradientUnits="userSpaceOnUse" x1="444.8104" y1="53.8731" x2="464.6732" y2="19.4697">
	<stop  offset="0.1345" style="stop-color:#373B44"/>
	<stop  offset="1" style="stop-color:#4286F4"/>
</linearGradient>
<circle class="st19" cx="454.7" cy="36.7" r="19.9"/>
<linearGradient id="SVGID_4_" gradientUnits="userSpaceOnUse" x1="479.0383" y1="74.4029" x2="499.0994" y2="39.6559">
	<stop  offset="0.1345" style="stop-color:#373B44"/>
	<stop  offset="1" style="stop-color:#4286F4"/>
</linearGradient>
<circle class="st20" cx="489.1" cy="57" r="20.1"/>
<g>
	<linearGradient id="SVGID_5_" gradientUnits="userSpaceOnUse" x1="65.3802" y1="495.5197" x2="141.288" y2="364.0435">
		<stop  offset="0.1345" style="stop-color:#373B44"/>
		<stop  offset="1" style="stop-color:#4286F4"/>
	</linearGradient>
	<path class="st21" d="M178.4,403.6c-0.3-2.3-0.9-5.4-1.7-8.7c-1-4.3-2.2-3.5-5.9-5.7c0.4-1.8,0.8-3.1,1-4.2c0.4-2.3,0-2.5-2-3.9
		c-4.3-3.2-11.9-4.5-18-5.1c-1.9-0.2-2.8,0.4-4,1.4c-0.6-0.8-1.1-1.4-2-2.3c-1.4-1.5-2.4-5.6-3.4-7.1c-1.6-2.5-4.8-4.8-7.5-6.2
		c-0.8-0.4-1.2-0.5-2.2-0.6c0-1.1,0-2.5-0.9-2.5c-2.8-0.2-8.7-0.1-12.4-0.1c-3.9,0-6.2-0.1-10.2,0c-1.7,0-1.9,0.6-2.1,2.4
		c-3.1,1-7.6,2.9-10,7c-1.6,2.7-2.6,5-4.1,7.4c-3,4.9-14.7,7-35.5,8.2c-3.4-1.2-7.7-0.3-14.6,1.2c-8.8,1.8-16.3,7.4-17.1,16.4
		c-1.9,21.6-2.2,43.8-0.6,66.9c0.4,5.9,3.7,7.7,12.7,7.8l15.9,0.2c2.2,0,2.9-0.7,4.3-1l105.4,0c9,0,16.2-7.4,16.4-16.4
		C180.2,437.4,180.3,417,178.4,403.6z M48.3,393c-3,0.2-5.4-1.1-5.4-2.9c0-1.8,2.4-3.5,5.4-3.7c3-0.2,5.4,1.1,5.4,2.9
		S51.3,392.8,48.3,393z M61.8,467.8c0,0.6-0.5,1.1-1.1,1.1c-0.6,0-1.1-0.5-1.1-1.1v-58c0-0.6,0.5-1.1,1.1-1.1c0.6,0,1.1,0.5,1.1,1.1
		V467.8z M118.6,473.9c-23.2,0-42.1-18.8-42.1-42.1c0-23.2,18.8-42.1,42.1-42.1s42.1,18.8,42.1,42.1
		C160.7,455.1,141.9,473.9,118.6,473.9z M162.4,441l-1.7-0.1c1.2-6.2,1.1-12.3,0-18.4l1.7,0.1C168.4,429.1,168.2,435.2,162.4,441z"
		/>
	<linearGradient id="SVGID_6_" gradientUnits="userSpaceOnUse" x1="100.9807" y1="462.4564" x2="136.3195" y2="401.2479">
		<stop  offset="0.1345" style="stop-color:#373B44"/>
		<stop  offset="1" style="stop-color:#4286F4"/>
	</linearGradient>
	<path class="st22" d="M118.6,396.5c-19.5,0-35.3,15.8-35.3,35.3c0,19.5,15.8,35.3,35.3,35.3c19.5,0,35.3-15.8,35.3-35.3
		C154,412.3,138.2,396.5,118.6,396.5z M118.6,452c-11.1,0-20.2-9-20.2-20.2c0-11.1,9-20.2,20.2-20.2s20.2,9,20.2,20.2
		C138.8,443,129.8,452,118.6,452z"/>
</g>
<g>
	<linearGradient id="SVGID_7_" gradientUnits="userSpaceOnUse" x1="225.2327" y1="459.0462" x2="250.5258" y2="415.2371">
		<stop  offset="0.1345" style="stop-color:#373B44"/>
		<stop  offset="1" style="stop-color:#4286F4"/>
	</linearGradient>
	<path class="st23" d="M211.2,423.4v27.6h53.4v-27.6H211.2z M222.3,442.1c0,1.6-1.4,2.9-2.9,2.9c-1.6,0-2.9-1.2-2.9-2.9v-10.4
		c0-1.6,1.4-2.9,2.9-2.9c1.6,0,2.9,1.4,2.9,2.9V442.1z M234.7,442.1c0,1.6-1.4,2.9-2.9,2.9s-2.9-1.2-2.9-2.9v-10.4
		c0-1.6,1.2-2.9,2.9-2.9c1.6,0,2.9,1.4,2.9,2.9V442.1z M247,442.1c0,1.6-1.4,2.9-2.9,2.9c-1.6,0-2.9-1.2-2.9-2.9v-10.4
		c0-1.6,1.4-2.9,2.9-2.9c1.6,0,2.9,1.4,2.9,2.9V442.1z M259.3,442.1c0,1.6-1.4,2.9-2.9,2.9c-1.6,0-2.9-1.2-2.9-2.9v-10.4
		c0-1.6,1.4-2.9,2.9-2.9c1.6,0,2.9,1.4,2.9,2.9V442.1z"/>
	<linearGradient id="SVGID_8_" gradientUnits="userSpaceOnUse" x1="227.7251" y1="429.5569" x2="246.1262" y2="397.6853">
		<stop  offset="0.1345" style="stop-color:#373B44"/>
		<stop  offset="1" style="stop-color:#4286F4"/>
	</linearGradient>
	<polygon class="st24" points="210.2,419.4 265.9,419.4 270.3,411.6 205.7,411.6 	"/>
	<linearGradient id="SVGID_9_" gradientUnits="userSpaceOnUse" x1="228.7931" y1="471.4065" x2="244.7159" y2="443.8275">
		<stop  offset="0.1345" style="stop-color:#373B44"/>
		<stop  offset="1" style="stop-color:#4286F4"/>
	</linearGradient>
	<polygon class="st25" points="217,464.6 258.9,464.6 263.8,454.8 212.2,454.8 	"/>
	<linearGradient id="SVGID_10_" gradientUnits="userSpaceOnUse" x1="231.4334" y1="483.4634" x2="244.7163" y2="460.4568">
		<stop  offset="0.1345" style="stop-color:#373B44"/>
		<stop  offset="1" style="stop-color:#4286F4"/>
	</linearGradient>
	<rect x="217.4" y="468.5" class="st26" width="41.3" height="6.8"/>
	<linearGradient id="SVGID_11_" gradientUnits="userSpaceOnUse" x1="223.9398" y1="418.91" x2="252.0143" y2="370.2834">
		<stop  offset="0.1345" style="stop-color:#373B44"/>
		<stop  offset="1" style="stop-color:#4286F4"/>
	</linearGradient>
	<path class="st27" d="M264,384.8l-2,7.6c-0.2,2.7-2.2,4.7-4.5,4.7c-2.3,0-4.1-2-4.5-4.7l-2-11.1h-26.2l-2,11.1
		c-0.4,2.7-2.3,4.7-4.5,4.7c-2.3,0-4.3-2-4.5-4.7l-2-7.6l-7.4-3.3v26.2h66.9v-26.2L264,384.8z"/>
	<linearGradient id="SVGID_12_" gradientUnits="userSpaceOnUse" x1="204.5279" y1="409.6586" x2="204.5279" y2="409.6586">
		<stop  offset="0.1345" style="stop-color:#373B44"/>
		<stop  offset="1" style="stop-color:#4286F4"/>
	</linearGradient>
	<path class="st28" d="M204.5,409.7L204.5,409.7L204.5,409.7z"/>
	<linearGradient id="SVGID_13_" gradientUnits="userSpaceOnUse" x1="204.4855" y1="409.8298" x2="204.5703" y2="409.683">
		<stop  offset="0.1345" style="stop-color:#373B44"/>
		<stop  offset="1" style="stop-color:#4286F4"/>
	</linearGradient>
	<polygon class="st29" points="204.5,409.9 204.5,409.9 204.5,409.7 	"/>
</g>
<g>
	<linearGradient id="SVGID_14_" gradientUnits="userSpaceOnUse" x1="251.1763" y1="58.536" x2="265.8209" y2="33.171">
		<stop  offset="0.1345" style="stop-color:#373B44"/>
		<stop  offset="1" style="stop-color:#4286F4"/>
	</linearGradient>
	<path class="st30" d="M255,32h7c3.1,0,6.2,2.3,6.2,6.2v15.5c0,3.1-3.1,6.2-6.2,6.2h-7c-3.1,0-6.2-3.1-6.2-6.2V38.2
		C248.8,34.3,251.9,32,255,32z"/>
	<linearGradient id="SVGID_15_" gradientUnits="userSpaceOnUse" x1="254.7651" y1="67.5118" x2="261.462" y2="55.9125">
		<stop  offset="0.1345" style="stop-color:#373B44"/>
		<stop  offset="1" style="stop-color:#4286F4"/>
	</linearGradient>
	<path class="st31" d="M269.8,60.7c-0.8,3.1-3.9,5.4-7,5.4h-8.6c-3.1,0-6.2-2.3-7-5.4H269.8z"/>
	<linearGradient id="SVGID_16_" gradientUnits="userSpaceOnUse" x1="242.0758" y1="58.7527" x2="254.8804" y2="36.5746">
		<stop  offset="0.1345" style="stop-color:#373B44"/>
		<stop  offset="1" style="stop-color:#4286F4"/>
	</linearGradient>
	<path class="st32" d="M244.2,60c-0.8-4.7,0-13.2,0-17.9c0-3.9,2.3-7,5.4-8.6c-1.6,0.8-2.3,2.3-2.3,4.7v16.3c0,2.3,1.6,3.9,3.1,5.4
		H244.2z"/>
	<linearGradient id="SVGID_17_" gradientUnits="userSpaceOnUse" x1="263.5992" y1="58.1642" x2="275.2496" y2="37.985">
		<stop  offset="0.1345" style="stop-color:#373B44"/>
		<stop  offset="1" style="stop-color:#4286F4"/>
	</linearGradient>
	<path class="st33" d="M267.5,33.5c3.1,1.6,6.2,4.7,6.2,8.6c0,4.7,0,13.2-0.8,17.9h-6.2c1.6-1.6,3.1-3.1,3.1-5.4V38.2
		C269.8,35.9,269,34.3,267.5,33.5z"/>
	<linearGradient id="SVGID_18_" gradientUnits="userSpaceOnUse" x1="252.0033" y1="89.5351" x2="265.0683" y2="66.906">
		<stop  offset="0.1345" style="stop-color:#373B44"/>
		<stop  offset="1" style="stop-color:#4286F4"/>
	</linearGradient>
	<path class="st34" d="M245.7,78.6l6.2-11.7h13.2l6.2,11.7l-6.2,10.9h-13.2L245.7,78.6z M258.9,70.8c3.9,0,7,3.1,7,7.8
		c0,3.9-3.1,7-7,7c-4.7,0-7.8-3.1-7.8-7C251.2,73.9,254.3,70.8,258.9,70.8z"/>
	<linearGradient id="SVGID_19_" gradientUnits="userSpaceOnUse" x1="255.9187" y1="83.0134" x2="261.2318" y2="73.8107">
		<stop  offset="0.1345" style="stop-color:#373B44"/>
		<stop  offset="1" style="stop-color:#4286F4"/>
	</linearGradient>
	<path class="st35" d="M262.8,74.7c0.8,0.8,1.6,2.3,1.6,3.9c0,1.6-0.8,3.1-2.3,3.9c-0.8-0.8-2.3-1.6-3.1-1.6c-1.6,0-3.1,0.8-3.9,1.6
		c-1.6-0.8-2.3-2.3-2.3-3.9c0-1.6,0.8-3.1,1.6-3.9c0.8,0.8,2.3,1.6,4.7,1.6C260.5,76.3,262,75.5,262.8,74.7z"/>
	<linearGradient id="SVGID_20_" gradientUnits="userSpaceOnUse" x1="155.3279" y1="42.9123" x2="168.1736" y2="20.663">
		<stop  offset="0.1345" style="stop-color:#373B44"/>
		<stop  offset="1" style="stop-color:#4286F4"/>
	</linearGradient>
	<path class="st36" d="M146.2,31.2c18.7-0.8,31.9-1.6,36.5-1.6c1.6,0,0.8,0,0.8,0c-3.9,0.8-11.7,2.3-13.2,3.1
		c-1.6,0.8-3.9,1.6-3.9,1.6l-21,0.8C138.4,35.1,137.7,32.7,146.2,31.2z"/>
	<linearGradient id="SVGID_21_" gradientUnits="userSpaceOnUse" x1="211.6239" y1="106.6606" x2="241.4181" y2="55.0554">
		<stop  offset="0.1345" style="stop-color:#373B44"/>
		<stop  offset="1" style="stop-color:#4286F4"/>
	</linearGradient>
	<polygon class="st37" points="219.3,106.6 211.5,106.6 211.5,101.9 216.2,87.9 216.9,87.2 218.5,82.5 227.8,65.4 237.9,54.5 
		241.8,55.3 230.2,66.9 222.4,81.7 223.2,80.9 224.7,80.9 224.7,81.7 227.8,81.7 226.3,84.8 224.7,84.8 217.7,101.2 220.8,101.2 	
		"/>
	<linearGradient id="SVGID_22_" gradientUnits="userSpaceOnUse" x1="181.048" y1="60.4781" x2="197.0449" y2="32.7707">
		<stop  offset="0.1345" style="stop-color:#373B44"/>
		<stop  offset="1" style="stop-color:#4286F4"/>
	</linearGradient>
	<path class="st38" d="M176.5,41.3h7.8c0-1.6,0-11.7,0.8-12.4c0.8-0.8,1.6-0.8,2.3-0.8c0.8,0,2.3,0,2.3,0.8
		c1.6,0.8,0.8,10.9,0.8,12.4h7.8v16.3h-1.6c-0.8,1.6-2.3,3.1-3.9,3.1h-10.1c-2.3,0-3.9-1.6-3.9-3.1h-2.3V41.3z"/>
	<linearGradient id="SVGID_23_" gradientUnits="userSpaceOnUse" x1="209.7411" y1="54.7828" x2="227.9915" y2="23.1723">
		<stop  offset="0.1345" style="stop-color:#373B44"/>
		<stop  offset="1" style="stop-color:#4286F4"/>
	</linearGradient>
	<path class="st39" d="M242.6,53.7c0,0-9.3-0.8-11.7-1.6c-3.1-0.8-6.2-2.3-6.2-2.3L203,47.5l-3.1,1.6v-9.3h-8.6
		c0.8-0.8,4.7-4.7,7-4.7c1.6,0,3.1,0,4.7,0v-4.7c-4.7,0-8.6,0-10.9,0c-0.8,0,0-0.8,0-0.8c3.1,0,11.7-1.6,12.4-2.3
		c1.6-0.8,3.1-0.8,3.9-0.8v-6.2c0-0.8,1.6-1.6,2.3-1.6c0.8,0,1.6,0.8,1.6,1.6v6.2h17.9c7,0,7.8,2.3-1.6,3.9c-3.9,0-7,0-10.9,0v3.9
		l1.6,2.3l12.4,6.2c2.3,0.8,8.6-0.8,10.9-1.6V53.7z"/>
	<linearGradient id="SVGID_24_" gradientUnits="userSpaceOnUse" x1="186.5677" y1="30.0675" x2="196.0564" y2="13.6327">
		<stop  offset="0.1345" style="stop-color:#373B44"/>
		<stop  offset="1" style="stop-color:#4286F4"/>
	</linearGradient>
	<path class="st40" d="M179.6,21.1c14,0,24.1-0.8,28-0.8l0,0c-3.1,0.8-8.6,2.3-10.1,2.3c-0.8,0.8-2.3,0.8-2.3,0.8l-16.3,0.8
		C174.2,24.2,173.4,22.6,179.6,21.1z"/>
	<linearGradient id="SVGID_25_" gradientUnits="userSpaceOnUse" x1="225.7362" y1="27.9553" x2="234.8996" y2="12.084">
		<stop  offset="0.1345" style="stop-color:#373B44"/>
		<stop  offset="1" style="stop-color:#4286F4"/>
	</linearGradient>
	<path class="st41" d="M241.8,21.1c-14,0-24.1,0-28,0l0,0c3.1-0.8,8.6-1.6,10.1-2.3c0.8-0.8,2.3-0.8,2.3-0.8h16.3
		C248,18,248,20.3,241.8,21.1z"/>
	<linearGradient id="SVGID_26_" gradientUnits="userSpaceOnUse" x1="350.7837" y1="39.5879" x2="360.0945" y2="23.4612">
		<stop  offset="0.1345" style="stop-color:#373B44"/>
		<stop  offset="1" style="stop-color:#4286F4"/>
	</linearGradient>
	<path class="st42" d="M370.9,31.2c-17.9-0.8-31.9-1.6-36.5-1.6c-0.8,0-0.8,0-0.8,0c3.9,0.8,11.7,2.3,13.2,3.1
		c1.6,0.8,3.9,1.6,3.9,1.6l21,0.8C378.6,35.1,379.4,32.7,370.9,31.2z"/>
	<linearGradient id="SVGID_27_" gradientUnits="userSpaceOnUse" x1="281.145" y1="96.9826" x2="299.0329" y2="65.9998">
		<stop  offset="0.1345" style="stop-color:#373B44"/>
		<stop  offset="1" style="stop-color:#4286F4"/>
	</linearGradient>
	<polygon class="st43" points="297.8,106.6 305.6,106.6 305.6,101.9 300.9,87.9 300.1,87.2 299.3,82.5 290,65.4 279.1,54.5 
		275.2,55.3 286.9,66.9 294.7,81.7 293.9,80.9 292.3,80.9 292.3,81.7 289.2,81.7 290.8,84.8 292.3,84.8 299.3,101.2 296.2,101.2 	
		"/>
	<linearGradient id="SVGID_28_" gradientUnits="userSpaceOnUse" x1="323.245" y1="60.5735" x2="339.2135" y2="32.9152">
		<stop  offset="0.1345" style="stop-color:#373B44"/>
		<stop  offset="1" style="stop-color:#4286F4"/>
	</linearGradient>
	<path class="st44" d="M340.5,41.3h-7.8c0-1.6,0-11.7-0.8-12.4c-0.8-0.8-1.6-0.8-2.3-0.8c-0.8,0-1.6,0-2.3,0.8
		c-1.6,0.8-0.8,10.9-0.8,12.4h-7.8v16.3h2.3c0,1.6,1.6,3.1,3.1,3.1h10.9c1.6,0,3.1-1.6,3.1-3.1h2.3V41.3z"/>
	<linearGradient id="SVGID_29_" gradientUnits="userSpaceOnUse" x1="287.9204" y1="61.4995" x2="311.2685" y2="21.0593">
		<stop  offset="0.1345" style="stop-color:#373B44"/>
		<stop  offset="1" style="stop-color:#4286F4"/>
	</linearGradient>
	<path class="st45" d="M274.5,53.7c0,0,9.3-0.8,11.7-1.6c3.1-0.8,6.2-2.3,6.2-2.3l21.8-2.3l3.1,1.6v-9.3h8.6c-0.8-0.8-4.7-4.7-7-4.7
		c-1.6,0-3.1,0-4.7,0v-4.7c4.7,0,8.6,0,10.9,0c0.8,0,0.8-0.8,0-0.8c-3.1,0-11.7-1.6-12.4-2.3c-0.8-0.8-3.1-0.8-3.9-0.8v-6.2
		c0-0.8-0.8-1.6-2.3-1.6c-0.8,0-1.6,0.8-1.6,1.6v6.2h-17.9c-6.2,0-7,2.3,1.6,3.9c3.9,0,7,0,10.9,0v3.9l-1.6,2.3l-12.4,6.2
		c-2.3,0.8-8.6-0.8-10.9-1.6V53.7z"/>
	<linearGradient id="SVGID_30_" gradientUnits="userSpaceOnUse" x1="322.3954" y1="27.7826" x2="329.4522" y2="15.5598">
		<stop  offset="0.1345" style="stop-color:#373B44"/>
		<stop  offset="1" style="stop-color:#4286F4"/>
	</linearGradient>
	<path class="st46" d="M337.4,21.1c-14,0-24.1-0.8-27.2-0.8c-0.8,0-0.8,0-0.8,0c3.1,0.8,8.6,2.3,10.1,2.3c0.8,0.8,2.3,0.8,2.3,0.8
		l16.3,0.8C343.7,24.2,343.7,22.6,337.4,21.1z"/>
	<linearGradient id="SVGID_31_" gradientUnits="userSpaceOnUse" x1="283.2567" y1="26.8851" x2="290.8478" y2="13.7368">
		<stop  offset="0.1345" style="stop-color:#373B44"/>
		<stop  offset="1" style="stop-color:#4286F4"/>
	</linearGradient>
	<path class="st47" d="M275.2,21.1c14,0,24.1,0,28,0c0.8,0,0,0,0,0c-3.1-0.8-8.6-1.6-10.1-2.3c-0.8-0.8-2.3-0.8-2.3-0.8h-16.3
		C269.8,18,269,20.3,275.2,21.1z"/>
</g>
<g>
	<g>
		<linearGradient id="SVGID_32_" gradientUnits="userSpaceOnUse" x1="403.648" y1="398.9435" x2="430.8156" y2="351.8879">
			<stop  offset="0.1345" style="stop-color:#373B44"/>
			<stop  offset="1" style="stop-color:#4286F4"/>
		</linearGradient>
		<path class="st48" d="M431.6,353h-14.2l-10.3-6.5v54.4l10.3-6.5h14.2c1.4,0,2.7-1.1,2.7-2.7v-36.2c0-1.6-1.4-2.7-2.7-2.7V353z"/>
	</g>
	<g>
		<linearGradient id="SVGID_33_" gradientUnits="userSpaceOnUse" x1="381.3675" y1="397.3971" x2="409.0706" y2="349.4139">
			<stop  offset="0.1345" style="stop-color:#373B44"/>
			<stop  offset="1" style="stop-color:#4286F4"/>
		</linearGradient>
		<path class="st49" d="M387.5,347.8v51.4c0,1.6,1.1,2.7,2.7,2.7h11.4v-56.9h-11.4C388.6,345.1,387.5,346.5,387.5,347.8z"/>
	</g>
	<g>
		<linearGradient id="SVGID_34_" gradientUnits="userSpaceOnUse" x1="483.7173" y1="410.7192" x2="506.8195" y2="370.705">
			<stop  offset="0.1345" style="stop-color:#373B44"/>
			<stop  offset="1" style="stop-color:#4286F4"/>
		</linearGradient>
		<rect x="472.4" y="377.2" class="st50" width="45.7" height="26.9"/>
	</g>
	<g>
		<linearGradient id="SVGID_35_" gradientUnits="userSpaceOnUse" x1="529.013" y1="398.9947" x2="557.6578" y2="349.3804">
			<stop  offset="0.1345" style="stop-color:#373B44"/>
			<stop  offset="1" style="stop-color:#4286F4"/>
		</linearGradient>
		<path class="st51" d="M544.8,343.2H538v61h6.8c3.5,0,6.3-2.2,7.3-5.4c4.9-14.7,4.9-31.6,0-49.8
			C551.3,345.4,548.3,343.2,544.8,343.2z"/>
	</g>
	<g>
		<linearGradient id="SVGID_36_" gradientUnits="userSpaceOnUse" x1="443.8061" y1="395.8831" x2="508.5205" y2="283.7944">
			<stop  offset="0.1345" style="stop-color:#373B44"/>
			<stop  offset="1" style="stop-color:#4286F4"/>
		</linearGradient>
		<path class="st52" d="M405.7,327.7h24.5c4.1,0,7.3-3.3,7.3-7.3h7.3v34h-5.2c0,0.3,0,0.8,0,1.1v36.5c0,0.5,0,0.8,0,1.1H452v2.7
			c0,4.6,3.8,8.4,8.4,8.4h6.5v-29.7c0-1.4,1.4-2.7,2.7-2.7h51.2c1.6,0,2.7,1.4,2.7,2.7v29.7h9.3v-61.2h-9.3l15.8-15.8l1.4,1.4
			c0.5,0.5,1.1,0.8,1.9,0.8c0.5,0,1.4-0.3,1.9-0.8l9-9c1.1-1.1,1.1-2.7,0-3.8l-14.4-14.2c-1.1-1.1-2.7-1.1-3.8,0l-9,9
			c-1.1,1.1-1.1,2.7,0,3.8l1.4,1.1l-20.1,20.1l-16.3-20.1c-0.3-0.3-1.1-0.5-1.6-0.5h-52v-0.8c0-4.1-3.3-7.3-7.3-7.3h-24.5
			c-4.1,0-7.3,3.3-7.3,7.3v6.3C398.4,324.4,401.6,327.7,405.7,327.7z M451.7,354.4h-1.6v-34h38.4l15.2,19.1l-3.8,3.8h-39.7
			c-4.6,0-8.4,3.8-8.4,8.4v3V354.4z"/>
	</g>
	<g>
		<linearGradient id="SVGID_37_" gradientUnits="userSpaceOnUse" x1="484.3219" y1="478.651" x2="524.8393" y2="408.4728">
			<stop  offset="0.1345" style="stop-color:#373B44"/>
			<stop  offset="1" style="stop-color:#4286F4"/>
		</linearGradient>
		<path class="st53" d="M476.8,470.6c-0.8,1.1-0.8,2.7,0.3,3.8c1.1,0.8,2.7,0.8,3.8-0.3l20.1-21.8v19.9c0,1.6,1.4,2.7,2.7,2.7
			c1.6,0,2.7-1.1,2.7-2.7v-20.1l20.1,21.8c1.1,1.4,2.7,1.4,3.8,0.3c1.1-1.1,1.4-2.7,0.3-3.8l-24.2-25.9v-9
			c7.1-1.4,12.2-7.3,12.2-14.7c0-0.8,0-1.6-0.3-2.4h5.7c1.6,0,2.7-1.1,2.7-2.7v-6h-46.3v6c0,1.6,1.1,2.7,2.7,2.7h5.7
			c-0.3,0.8-0.3,1.6-0.3,2.4c0,3.5,1.4,6.8,3.5,9.5c2.2,2.7,5.2,4.6,8.7,5.2v9L476.8,470.6z M494.2,420.8c0-0.8,0-1.6,0.3-2.4H513
			c0.3,0.8,0.3,1.6,0.3,2.4c0,5.2-4.4,9.5-9.5,9.5C498.5,430.3,494.2,426,494.2,420.8z"/>
	</g>
</g>
</svg>
